# 3ds Max Wavefront OBJ Exporter v0.99 - (c)2007 guruware
# File Created: 05.12.2021 15:56:30

mtllib entire_map.mtl

#
# object Box006
#

v  -81.8724 75.4939 79.6177
v  -71.8724 75.4939 79.6177
v  -71.8724 75.4939 -120.3823
v  -81.8724 75.4939 -120.3823
v  -81.8724 0.4939 79.6177
v  -71.8724 0.4939 79.6177
v  -71.8724 0.4939 -120.3823
v  -81.8724 0.4939 -120.3823
v  -71.8724 0.4939 -15.8547
v  -81.8724 0.4939 -15.8547
v  -81.8724 0.4939 44.9625
v  -71.8724 0.4939 44.9625
v  -71.8724 38.1404 -15.2825
v  -81.8724 38.1404 -15.2825
v  -71.8724 43.8471 -13.5514
v  -81.8724 43.8471 -13.5514
v  -71.8724 49.1065 -10.7402
v  -81.8724 49.1065 -10.7402
v  -71.8724 53.7164 -6.9570
v  -81.8724 53.7164 -6.9570
v  -71.8724 57.4996 -2.3471
v  -81.8724 57.4996 -2.3471
v  -71.8724 60.3108 2.9123
v  -81.8724 60.3108 2.9123
v  -71.8724 62.0419 8.6190
v  -81.8724 62.0419 8.6190
v  -71.8724 62.6265 14.5539
v  -81.8724 62.6265 14.5539
v  -71.8724 62.0419 20.4887
v  -81.8724 62.0419 20.4887
v  -71.8724 60.3108 26.1954
v  -81.8724 60.3108 26.1954
v  -71.8724 57.4996 31.4548
v  -81.8724 57.4996 31.4548
v  -71.8724 53.7164 36.0647
v  -81.8724 53.7164 36.0647
v  -71.8724 49.1065 39.8480
v  -81.8724 49.1065 39.8480
v  -71.8724 43.8471 42.6591
v  -81.8724 43.8471 42.6591
v  -71.8724 38.1404 44.3903
v  -81.8724 38.1404 44.3903
# 42 vertices

vn 0.0000 1.0000 -0.0000
vn 0.0000 0.0000 1.0000
vn 0.0000 0.0000 -1.0000
vn 0.0000 -1.0000 -0.0000
vn 0.0000 -0.0152 0.9999
vn 0.0000 -0.2903 0.9569
vn 0.0000 -0.4714 0.8819
vn 0.0000 -0.6344 0.7730
vn 0.0000 -0.7730 0.6344
vn 0.0000 -0.8819 0.4714
vn 0.0000 -0.9569 0.2903
vn 0.0000 -0.9952 0.0980
vn 0.0000 -0.9952 -0.0980
vn 0.0000 -0.9569 -0.2903
vn 0.0000 -0.8819 -0.4714
vn 0.0000 -0.7730 -0.6344
vn 0.0000 -0.6344 -0.7730
vn 0.0000 -0.4714 -0.8819
vn 0.0000 -0.2903 -0.9569
vn 0.0000 -0.0152 -0.9999
vn -1.0000 0.0000 -0.0000
vn 1.0000 0.0000 -0.0000
# 22 vertex normals

vt 0.0000 0.0000 0.0000
vt 1.0000 0.0000 0.0000
vt 1.0000 1.0000 0.0000
vt 0.0000 1.0000 0.0000
vt 0.0000 0.4774 0.0000
vt 1.0000 0.4774 0.0000
vt 1.0000 0.1733 0.0000
vt 0.0000 0.1733 0.0000
vt 0.8239 0.5020 0.0000
vt 0.8267 0.0000 0.0000
vt 0.8152 0.5780 0.0000
vt 0.8012 0.6482 0.0000
vt 0.7822 0.7096 0.0000
vt 0.7592 0.7601 0.0000
vt 0.7329 0.7976 0.0000
vt 0.7044 0.8206 0.0000
vt 0.6747 0.8284 0.0000
vt 0.6450 0.8206 0.0000
vt 0.6165 0.7976 0.0000
vt 0.5902 0.7601 0.0000
vt 0.5671 0.7096 0.0000
vt 0.5482 0.6482 0.0000
vt 0.5342 0.5780 0.0000
vt 0.5255 0.5020 0.0000
vt 0.5226 0.0000 0.0000
vt 0.1733 -0.0000 0.0000
vt 0.1761 0.5020 0.0000
vt 0.1848 0.5780 0.0000
vt 0.1988 0.6482 0.0000
vt 0.2178 0.7096 0.0000
vt 0.2408 0.7601 0.0000
vt 0.2671 0.7976 0.0000
vt 0.2956 0.8206 0.0000
vt 0.3253 0.8284 0.0000
vt 0.3550 0.8206 0.0000
vt 0.3835 0.7976 0.0000
vt 0.4098 0.7601 0.0000
vt 0.4329 0.7096 0.0000
vt 0.4518 0.6482 0.0000
vt 0.4658 0.5780 0.0000
vt 0.4745 0.5020 0.0000
vt 0.4774 0.0000 0.0000
# 42 texture coords

o Box006
g Box006
usemtl Material__2
s 4
f 1/1/1 2/2/1 3/3/1 
f 3/3/1 4/4/1 1/1/1 
s 8
f 5/1/2 6/2/2 2/3/2 
f 2/3/2 1/4/2 5/1/2 
s 32
f 7/1/3 8/2/3 4/3/3 
f 4/3/3 3/4/3 7/1/3 
s 2
f 7/4/4 9/5/4 10/6/4 
f 10/6/4 8/3/4 7/4/4 
f 5/2/4 11/7/4 12/8/4 
f 12/8/4 6/1/4 5/2/4 
s off
f 10/1/5 9/1/5 13/1/5 
f 13/1/5 14/1/5 10/1/5 
f 15/1/6 16/1/6 14/1/6 
f 14/1/6 13/1/6 15/1/6 
f 16/1/7 15/1/7 17/1/7 
f 17/1/7 18/1/7 16/1/7 
f 18/1/8 17/1/8 19/1/8 
f 19/1/8 20/1/8 18/1/8 
f 19/1/9 21/1/9 22/1/9 
f 22/1/9 20/1/9 19/1/9 
f 21/1/10 23/1/10 24/1/10 
f 24/1/10 22/1/10 21/1/10 
f 23/1/11 25/1/11 26/1/11 
f 26/1/11 24/1/11 23/1/11 
f 25/1/12 27/1/12 28/1/12 
f 28/1/12 26/1/12 25/1/12 
f 28/1/13 27/1/13 29/1/13 
f 29/1/13 30/1/13 28/1/13 
f 30/1/14 29/1/14 31/1/14 
f 31/1/14 32/1/14 30/1/14 
f 32/1/15 31/1/15 33/1/15 
f 33/1/15 34/1/15 32/1/15 
f 35/1/16 36/1/16 34/1/16 
f 34/1/16 33/1/16 35/1/16 
f 36/1/17 35/1/17 37/1/17 
f 37/1/17 38/1/17 36/1/17 
f 37/1/18 39/1/18 40/1/18 
f 40/1/18 38/1/18 37/1/18 
f 39/1/19 41/1/19 42/1/19 
f 42/1/19 40/1/19 39/1/19 
f 42/1/20 41/1/20 12/1/20 
f 12/1/20 11/1/20 42/1/20 
s 64
f 42/9/21 11/10/21 5/2/21 
f 42/9/21 5/2/21 1/3/21 
f 40/11/21 42/9/21 1/3/21 
f 38/12/21 40/11/21 1/3/21 
f 36/13/21 38/12/21 1/3/21 
f 34/14/21 36/13/21 1/3/21 
f 32/15/21 34/14/21 1/3/21 
f 30/16/21 32/15/21 1/3/21 
f 28/17/21 30/16/21 1/3/21 
f 26/18/21 28/17/21 1/3/21 
f 26/18/21 1/3/21 4/4/21 
f 24/19/21 26/18/21 4/4/21 
f 22/20/21 24/19/21 4/4/21 
f 20/21/21 22/20/21 4/4/21 
f 18/22/21 20/21/21 4/4/21 
f 16/23/21 18/22/21 4/4/21 
f 14/24/21 16/23/21 4/4/21 
f 14/24/21 4/4/21 8/1/21 
f 14/24/21 8/1/21 10/25/21 
s 16
f 6/1/22 12/26/22 41/27/22 
f 2/4/22 6/1/22 41/27/22 
f 2/4/22 41/27/22 39/28/22 
f 2/4/22 39/28/22 37/29/22 
f 2/4/22 37/29/22 35/30/22 
f 2/4/22 35/30/22 33/31/22 
f 2/4/22 33/31/22 31/32/22 
f 2/4/22 31/32/22 29/33/22 
f 2/4/22 29/33/22 27/34/22 
f 2/4/22 27/34/22 25/35/22 
f 3/3/22 2/4/22 25/35/22 
f 3/3/22 25/35/22 23/36/22 
f 3/3/22 23/36/22 21/37/22 
f 3/3/22 21/37/22 19/38/22 
f 3/3/22 19/38/22 17/39/22 
f 3/3/22 17/39/22 15/40/22 
f 3/3/22 15/40/22 13/41/22 
f 7/2/22 3/3/22 13/41/22 
f 7/2/22 13/41/22 9/42/22 
# 80 faces

#
# object Box007
#

v  -81.8724 0.4939 -35.4547
v  68.1276 0.4939 -35.4547
v  68.1276 0.4939 -25.4547
v  -81.8724 0.4939 -25.4547
v  -81.8724 50.4939 -35.4547
v  -81.8724 50.4939 -25.4547
v  68.1276 50.4939 -25.4547
v  68.1276 50.4939 -35.4547
# 8 vertices

vn 0.0000 -1.0000 -0.0000
vn 0.0000 1.0000 -0.0000
vn -1.0000 0.0000 -0.0000
vn -0.0000 0.0000 1.0000
vn 1.0000 0.0000 0.0000
vn 0.0000 0.0000 -1.0000
# 6 vertex normals

vt 1.0000 0.0000 0.0000
vt 1.0000 1.0000 0.0000
vt 0.0000 1.0000 0.0000
vt 0.0000 0.0000 0.0000
# 4 texture coords

o Box007
g Box007
usemtl Material__2
s 2
f 43/43/23 44/44/23 45/45/23 
f 45/45/23 46/46/23 43/43/23 
s 4
f 47/46/24 48/43/24 49/44/24 
f 49/44/24 50/45/24 47/46/24 
s 8
f 43/46/25 46/43/25 48/44/25 
f 48/44/25 47/45/25 43/46/25 
s 16
f 46/46/26 45/43/26 49/44/26 
f 49/44/26 48/45/26 46/46/26 
s 32
f 45/46/27 44/43/27 50/44/27 
f 50/44/27 49/45/27 45/46/27 
s 64
f 44/46/28 43/43/28 47/44/28 
f 47/44/28 50/45/28 44/46/28 
# 12 faces

#
# object Box009
#

v  -18.8808 0.4939 -71.0288
v  -19.9227 0.4939 -71.1539
v  -20.8812 0.4939 -71.3622
v  -21.7564 0.4939 -71.6540
v  -22.5483 0.4939 -72.0291
v  -23.2568 0.4939 -72.4875
v  -23.8819 0.4939 -73.0293
v  -24.4237 0.4939 -73.6544
v  -24.8822 0.4939 -74.3629
v  -25.2572 0.4939 -75.1548
v  -25.5490 0.4939 -76.0300
v  -25.7574 0.4939 -76.9885
v  -25.8824 0.4939 -78.0304
v  -25.9241 0.4939 -79.1557
v  -25.9240 0.4939 -80.9876
v  118.1276 0.4939 -80.9876
v  -17.7555 0.4939 -70.9872
v  118.1276 0.4939 -70.9872
v  -25.8824 75.4939 -78.0304
v  -25.7574 75.4939 -76.9885
v  -25.5490 75.4939 -76.0300
v  -20.8812 75.4939 -71.3622
v  -19.9227 75.4939 -71.1539
v  -18.8808 75.4939 -71.0288
v  -21.7564 75.4939 -71.6540
v  -22.5483 75.4939 -72.0291
v  -23.2568 75.4939 -72.4875
v  -23.8819 75.4939 -73.0293
v  -24.4237 75.4939 -73.6544
v  -24.8822 75.4939 -74.3629
v  -25.2572 75.4939 -75.1548
v  -17.7555 75.4939 -70.9872
v  118.1276 75.4939 -70.9872
v  118.1276 75.4939 -80.9876
v  -25.9241 75.4939 -79.1557
v  -25.9240 75.4939 -80.9876
# 36 vertices

vn 0.0000 -1.0000 -0.0000
vn 0.0000 1.0000 -0.0000
vn 0.0003 1.0000 -0.0001
vn 0.0001 1.0000 -0.0003
vn 0.0000 0.0000 1.0000
vn -0.0185 0.0000 0.9998
vn 1.0000 0.0000 -0.0000
vn 0.0000 0.0000 -1.0000
vn -0.9998 0.0000 0.0185
vn -1.0000 0.0000 -0.0000
vn -0.0781 0.0000 0.9969
vn -0.1660 0.0000 0.9861
vn -0.2647 0.0000 0.9643
vn -0.3728 0.0000 0.9279
vn -0.4867 0.0000 0.8736
vn -0.6006 0.0000 0.7996
vn -0.7071 0.0000 0.7071
vn -0.9969 0.0000 0.0781
vn -0.9861 0.0000 0.1660
vn -0.9643 0.0000 0.2647
vn -0.9279 0.0000 0.3728
vn -0.8736 0.0000 0.4867
vn -0.7996 0.0000 0.6006
# 23 vertex normals

vt 0.9514 0.0000 0.0000
vt 0.9595 0.0000 0.0000
vt 0.9676 0.0000 0.0000
vt 0.9757 0.0000 0.0000
vt 0.9838 0.0000 0.0000
vt 0.9919 0.0000 0.0000
vt 1.0000 0.0000 0.0000
vt 1.0000 0.0904 0.0000
vt 1.0000 0.1808 0.0000
vt 1.0000 0.2712 0.0000
vt 1.0000 0.3616 0.0000
vt 1.0000 0.4521 0.0000
vt 1.0000 0.5425 0.0000
vt 1.0000 0.6329 0.0000
vt 1.0000 1.0000 0.0000
vt 0.0000 1.0000 0.0000
vt 0.9433 0.0000 0.0000
vt 0.0000 0.0000 0.0000
vt 0.0000 0.5425 0.0000
vt 0.0000 0.4521 0.0000
vt 0.0000 0.3616 0.0000
vt 0.0324 0.0000 0.0000
vt 0.0405 0.0000 0.0000
vt 0.0486 0.0000 0.0000
vt 0.0243 0.0000 0.0000
vt 0.0162 0.0000 0.0000
vt 0.0081 0.0000 0.0000
vt 0.0000 0.0904 0.0000
vt 0.0000 0.1808 0.0000
vt 0.0000 0.2712 0.0000
vt 0.0567 0.0000 0.0000
vt 0.0000 0.6329 0.0000
vt 0.0567 1.0000 0.0000
vt 0.3671 0.0000 0.0000
vt 0.3671 1.0000 0.0000
vt 0.0486 1.0000 0.0000
vt 0.0405 1.0000 0.0000
vt 0.0324 1.0000 0.0000
vt 0.0243 1.0000 0.0000
vt 0.0162 1.0000 0.0000
vt 0.0081 1.0000 0.0000
vt 0.4575 0.0000 0.0000
vt 0.4575 1.0000 0.0000
vt 0.5479 0.0000 0.0000
vt 0.5479 1.0000 0.0000
vt 0.6384 0.0000 0.0000
vt 0.6384 1.0000 0.0000
vt 0.7288 0.0000 0.0000
vt 0.7288 1.0000 0.0000
vt 0.8192 0.0000 0.0000
vt 0.8192 1.0000 0.0000
vt 0.9096 0.0000 0.0000
vt 0.9096 1.0000 0.0000
# 53 texture coords

o Box009
g Box009
usemtl Material__2
s 1
f 51/47/29 52/48/29 53/49/29 
f 51/47/29 53/49/29 54/50/29 
f 51/47/29 54/50/29 55/51/29 
f 51/47/29 55/51/29 56/52/29 
f 51/47/29 56/52/29 57/53/29 
f 51/47/29 57/53/29 58/54/29 
f 51/47/29 58/54/29 59/55/29 
f 51/47/29 59/55/29 60/56/29 
f 51/47/29 60/56/29 61/57/29 
f 61/57/29 62/58/29 63/59/29 
f 51/47/29 61/57/29 63/59/29 
f 64/60/29 65/61/29 66/62/29 
f 63/59/29 64/60/29 66/62/29 
f 51/47/29 63/59/29 66/62/29 
f 67/63/29 51/47/29 66/62/29 
f 67/63/29 66/62/29 68/64/29 
f 69/65/30 70/66/31 71/67/30 
f 72/68/30 73/69/32 74/70/30 
f 75/71/30 72/68/30 74/70/30 
f 76/72/30 75/71/30 74/70/30 
f 77/73/30 76/72/30 74/70/30 
f 78/64/30 77/73/30 74/70/30 
f 79/74/30 78/64/30 74/70/30 
f 80/75/30 79/74/30 74/70/30 
f 81/76/30 80/75/30 74/70/30 
f 71/67/30 81/76/30 74/70/30 
f 69/65/30 71/67/30 74/70/30 
f 82/77/30 83/53/30 84/61/30 
f 74/70/30 82/77/30 84/61/30 
f 69/65/30 74/70/30 84/61/30 
f 85/78/30 69/65/30 84/61/30 
f 85/78/30 84/61/30 86/62/30 
s 2
f 68/53/33 83/61/33 82/79/34 
f 82/79/34 67/77/34 68/53/33 
s 4
f 68/64/35 66/53/35 84/61/35 
f 84/61/35 83/62/35 68/64/35 
s 8
f 66/64/36 65/53/36 86/61/36 
f 86/61/36 84/62/36 66/64/36 
s 2
f 64/80/37 85/81/37 86/62/38 
f 86/62/38 65/64/38 64/80/37 
f 67/77/34 82/79/34 74/82/39 
f 74/82/39 51/70/39 67/77/34 
f 51/70/39 74/82/39 73/83/40 
f 73/83/40 52/69/40 51/70/39 
f 52/69/40 73/83/40 72/84/41 
f 72/84/41 53/68/41 52/69/40 
f 53/68/41 72/84/41 75/85/42 
f 75/85/42 54/71/42 53/68/41 
f 54/71/42 75/85/42 76/86/43 
f 76/86/43 55/72/43 54/71/42 
f 55/72/43 76/86/43 77/87/44 
f 77/87/44 56/73/44 55/72/43 
f 56/73/44 77/87/44 78/62/45 
f 78/62/45 57/64/45 56/73/44 
f 85/81/37 64/80/37 63/88/46 
f 63/88/46 69/89/46 85/81/37 
f 69/89/46 63/88/46 62/90/47 
f 62/90/47 70/91/47 69/89/46 
f 70/91/47 62/90/47 61/92/48 
f 61/92/48 71/93/48 70/91/47 
f 71/93/48 61/92/48 60/94/49 
f 60/94/49 81/95/49 71/93/48 
f 81/95/49 60/94/49 59/96/50 
f 59/96/50 80/97/50 81/95/49 
f 80/97/50 59/96/50 58/98/51 
f 58/98/51 79/99/51 80/97/50 
f 79/99/51 58/98/51 57/53/45 
f 57/53/45 78/61/45 79/99/51 
# 68 faces

#
# object Box010
#

v  -25.8724 0.4939 -80.8823
v  -25.8724 0.4939 -120.3823
v  -15.8724 0.4939 -120.3823
v  -15.8724 0.4939 -80.8823
v  -25.8724 75.4939 -80.8823
v  -15.8724 75.4939 -80.8823
v  -15.8724 75.4939 -120.3823
v  -25.8724 75.4939 -120.3823
# 8 vertices

vn 0.0000 -1.0000 -0.0000
vn 0.0000 1.0000 -0.0000
vn 0.0000 0.0000 1.0000
vn 1.0000 0.0000 -0.0000
vn 0.0000 0.0000 -1.0000
vn -1.0000 0.0000 -0.0000
# 6 vertex normals

vt 1.0000 0.0000 0.0000
vt 1.0000 1.0000 0.0000
vt 0.0000 1.0000 0.0000
vt 0.0000 0.0000 0.0000
# 4 texture coords

o Box010
g Box010
usemtl Material__2
s 2
f 87/100/52 88/101/52 89/102/52 
f 89/102/52 90/103/52 87/100/52 
s 4
f 91/103/53 92/100/53 93/101/53 
f 93/101/53 94/102/53 91/103/53 
s 8
f 87/103/54 90/100/54 92/101/54 
f 92/101/54 91/102/54 87/103/54 
s 16
f 90/103/55 89/100/55 93/101/55 
f 93/101/55 92/102/55 90/103/55 
s 32
f 89/103/56 88/100/56 94/101/56 
f 94/101/56 93/102/56 89/103/56 
s 64
f 88/103/57 87/100/57 91/101/57 
f 91/101/57 94/102/57 88/103/57 
# 12 faces

#
# object Plane001
#

v  -74.4939 0.0000 74.4199
v  -8.2565 0.0000 74.4199
v  -8.2565 0.0000 -29.5144
v  -74.4939 0.0000 -29.5144
v  66.7415 36.0545 74.4199
v  66.7415 36.0545 -29.5044
v  66.7324 36.0501 -29.5144
v  137.8478 34.9771 74.4199
v  137.8478 34.9771 -29.5044
v  66.7415 36.0545 -74.6411
v  137.8478 34.9771 -74.6411
v  -75.3910 36.2481 -34.8530
v  -4.0906 36.2481 -34.8530
v  -4.0906 36.2481 -75.7208
v  -75.3910 36.2481 -75.7208
v  67.2097 36.2481 -34.8530
v  67.2097 36.2481 -75.7208
v  -74.9570 36.2481 -75.9146
v  -50.0739 36.2481 -75.9146
v  -50.0739 36.2481 -153.7363
v  -74.9570 36.2481 -153.7363
v  -25.1907 36.2481 -75.9146
v  -25.1907 36.2481 -153.7363
# 23 vertices

vn 0.0000 1.0000 -0.0000
vn -0.2222 0.9750 -0.0000
vn -0.4333 0.9013 -0.0000
vn 0.0152 0.9999 -0.0000
# 4 vertex normals

vt 0.0024 1.0062 0.0000
vt 0.0024 0.3757 0.0000
vt 0.9917 0.3757 0.0000
vt 0.9917 1.0062 0.0000
vt 0.9909 0.7268 0.0000
vt -0.0081 0.7268 0.0000
vt -0.0081 0.0059 0.0000
vt 0.9908 0.0059 0.0000
vt 0.9909 0.0060 0.0000
vt -0.0109 -0.1154 0.0000
vt 0.9881 -0.1154 0.0000
vt 0.9881 0.5681 0.0000
vt -0.0109 0.5681 0.0000
vt 0.4894 0.3350 0.0000
vt 0.7018 0.3350 0.0000
vt 0.4895 0.3351 0.0000
vt 0.7902 0.9627 0.0000
vt -0.2166 0.9627 0.0000
vt -0.2166 -0.6235 0.0000
vt 0.7902 -0.6235 0.0000
vt -0.1101 1.9850 0.0000
vt -0.1101 0.3534 0.0000
vt 0.8251 0.3534 0.0000
vt 0.8251 1.9850 0.0000
vt -0.1101 -1.2782 0.0000
vt 0.8251 -1.2782 0.0000
vt -0.3356 -0.1259 0.0000
vt -0.0162 -0.1259 0.0000
vt -0.0162 0.8731 0.0000
vt -0.3356 0.8731 0.0000
vt 0.3032 -0.1259 0.0000
vt 0.3032 0.8731 0.0000
# 32 texture coords

o Plane001
g Plane001
usemtl 15___Default
s 1
f 95/104/58 96/105/59 97/106/59 
f 97/106/59 98/107/58 95/104/58 
f 97/108/59 96/109/59 99/110/60 
f 99/110/60 100/111/60 101/112/60 
f 97/108/59 99/110/60 101/112/60 
s off
f 102/113/61 103/114/61 100/115/61 
f 100/115/61 99/116/61 102/113/61 
f 100/117/60 104/118/60 101/119/60 
f 104/120/61 100/121/61 103/122/61 
f 103/122/61 105/123/61 104/120/61 
s 1
f 106/124/58 107/125/58 108/126/58 
f 108/126/58 109/127/58 106/124/58 
f 107/125/58 110/128/58 111/129/58 
f 111/129/58 108/126/58 107/125/58 
f 112/130/58 113/131/58 114/132/58 
f 114/132/58 115/133/58 112/130/58 
f 113/131/58 116/134/58 117/135/58 
f 117/135/58 114/132/58 113/131/58 
# 18 faces

