# 3ds Max Wavefront OBJ Exporter v0.99 - (c)2007 guruware
# File Created: 05.12.2021 18:04:36

mtllib escuro.mtl

#
# object Circle_Circle_002
#

v  -69.8857 -3.1922 68.7750
v  -69.4343 30.7210 68.7750
v  -66.6118 30.0670 68.7750
v  -67.0079 -3.1922 68.7750
v  -68.0974 35.8550 68.7750
v  -65.4388 34.5721 68.7750
v  -65.9265 40.5865 68.7750
v  -63.5338 38.7240 68.7750
v  -63.0050 44.7337 68.7750
v  -60.9702 42.3632 68.7750
v  -59.4451 48.1372 68.7750
v  -57.8464 45.3498 68.7750
v  -55.3837 50.6663 68.7750
v  -54.2824 47.5690 68.7750
v  -50.9767 52.2237 68.7750
v  -50.4154 48.9356 68.7750
v  -46.3937 52.7495 68.7750
v  -46.3937 49.3970 68.7750
v  -41.8106 52.2237 68.7750
v  -42.3720 48.9356 68.7750
v  -37.4037 50.6663 68.7750
v  -38.5049 47.5690 68.7750
v  -33.3422 48.1373 68.7750
v  -34.9410 45.3498 68.7750
v  -29.7824 44.7337 68.7750
v  -31.8172 42.3632 68.7750
v  -26.8608 40.5865 68.7750
v  -29.2535 38.7240 68.7750
v  -24.6899 35.8550 68.7750
v  -27.3486 34.5721 68.7750
v  -23.3531 30.7210 68.7750
v  -26.1755 30.0670 68.7750
v  -22.9017 -3.1922 68.7750
v  -25.7795 -3.1922 68.7750
v  -66.6118 30.0670 184.3366
v  -69.4342 30.7210 184.3366
v  -69.8856 -3.1922 184.3366
v  -67.0079 -3.1922 184.3366
v  -65.4388 34.5721 184.3366
v  -68.0974 35.8550 184.3366
v  -63.5338 38.7240 184.3366
v  -65.9265 40.5865 184.3366
v  -60.9702 42.3632 184.3366
v  -63.0050 44.7337 184.3366
v  -57.8463 45.3498 184.3366
v  -59.4451 48.1372 184.3366
v  -54.2824 47.5690 184.3366
v  -55.3837 50.6663 184.3366
v  -50.4154 48.9356 184.3366
v  -50.9767 52.2237 184.3366
v  -46.3937 49.3970 184.3366
v  -46.3937 52.7495 184.3366
v  -42.3720 48.9356 184.3366
v  -41.8106 52.2237 184.3366
v  -38.5049 47.5690 184.3366
v  -37.4037 50.6663 184.3366
v  -34.9410 45.3498 184.3366
v  -33.3422 48.1373 184.3366
v  -31.8172 42.3632 184.3366
v  -29.7823 44.7337 184.3366
v  -29.2535 38.7240 184.3366
v  -26.8608 40.5865 184.3366
v  -27.3486 34.5721 184.3366
v  -24.6899 35.8550 184.3366
v  -26.1755 30.0670 184.3366
v  -23.3531 30.7210 184.3366
v  -25.7795 -3.1922 184.3366
v  -22.9017 -3.1922 184.3366
# 68 vertices

vn -0.0000 0.0000 -1.0000
vn 0.0000 0.0000 1.0000
vn 0.4714 -0.8819 -0.0000
vn 0.0000 -1.0000 -0.0000
vn 0.0980 0.9952 -0.0000
vn 0.2903 -0.9569 -0.0000
vn 0.2903 0.9569 -0.0000
vn 0.0980 -0.9952 -0.0000
vn 0.4714 0.8819 -0.0000
vn -0.0980 -0.9952 0.0000
vn 0.6344 0.7730 -0.0000
vn -0.2903 -0.9569 0.0000
vn 0.7730 0.6344 -0.0000
vn -0.4714 -0.8819 0.0000
vn 0.8819 0.4714 -0.0000
vn -0.9999 0.0155 0.0000
vn -0.6344 -0.7730 0.0000
vn 0.9569 0.2903 -0.0000
vn -0.9569 0.2903 0.0000
vn -0.7730 -0.6344 0.0000
vn 0.9999 0.0155 -0.0000
vn -0.8819 0.4714 0.0000
vn -0.8819 -0.4714 0.0000
vn 0.9999 -0.0139 -0.0000
vn -0.7730 0.6344 0.0000
vn -0.9569 -0.2903 0.0000
vn 0.9569 -0.2903 -0.0000
vn -0.6344 0.7730 0.0000
vn -0.9999 -0.0139 0.0000
vn 0.8819 -0.4714 -0.0000
vn -0.4714 0.8819 0.0000
vn 0.7730 -0.6344 -0.0000
vn -0.2903 0.9569 0.0000
vn 0.6344 -0.7730 -0.0000
vn -0.0980 0.9952 0.0000
# 35 vertex normals

vt 0.4079 -2.5163 0.0000
vt 0.3143 3.5215 0.0000
vt -0.2711 3.4051 0.0000
vt -0.1890 -2.5163 0.0000
vt 0.8039 0.1134 0.0000
vt 0.5351 0.9995 0.0000
vt 0.0005 0.7781 0.0000
vt 0.2364 0.0005 0.0000
vt 0.9995 0.5285 0.0000
vt 0.1227 0.8113 0.0000
vt 0.0005 0.2487 0.0000
vt 0.7699 0.0005 0.0000
vt 0.1153 0.9995 0.0000
vt 0.0005 0.0113 0.0000
vt 0.6220 0.0005 0.0000
vt 0.7227 0.8676 0.0000
vt 0.0005 0.0005 0.0000
vt 0.9995 0.0114 0.0000
vt 0.9315 0.6320 0.0000
vt 0.0549 0.6224 0.0000
vt 0.0027 0.9995 0.0000
vt 0.6219 0.0603 0.0000
vt 0.6238 0.9370 0.0000
vt 0.0158 0.9995 0.0000
vt 0.6227 0.0522 0.0000
vt 0.6361 0.9288 0.0000
vt 0.0005 0.9995 0.0000
vt 0.0070 0.0005 0.0000
vt 0.6279 0.0658 0.0000
vt 0.6222 0.9424 0.0000
vt 0.9995 0.0989 0.0000
vt 0.8771 0.7141 0.0000
vt 0.0005 0.6278 0.0000
vt 0.0005 0.2486 0.0000
vt 0.1233 -5.6677 0.0000
vt 0.7728 -5.8974 0.0000
vt 0.8767 6.0107 0.0000
vt 0.2145 6.0107 0.0000
vt 0.6435 0.8106 0.0000
vt 0.6274 0.8138 0.0000
vt 0.6249 0.6483 0.0000
vt 0.6412 0.6483 0.0000
vt 0.6501 0.8326 0.0000
vt 0.6350 0.8388 0.0000
vt 0.6610 0.8528 0.0000
vt 0.6474 0.8619 0.0000
vt 0.6755 0.8706 0.0000
vt 0.6640 0.8821 0.0000
vt 0.6933 0.8851 0.0000
vt 0.6842 0.8987 0.0000
vt 0.7135 0.8960 0.0000
vt 0.7073 0.9111 0.0000
vt 0.7355 0.9026 0.0000
vt 0.7323 0.9187 0.0000
vt 0.7584 0.9049 0.0000
vt 0.7584 0.9212 0.0000
vt 0.7812 0.9026 0.0000
vt 0.7844 0.9187 0.0000
vt 0.8032 0.8960 0.0000
vt 0.8095 0.9111 0.0000
vt 0.1732 0.0064 0.0000
vt 0.7407 0.1193 0.0000
vt 0.4719 1.0054 0.0000
vt -0.0626 0.7840 0.0000
vt 0.0005 0.9802 0.0000
vt 0.0141 0.0005 0.0000
vt 0.1128 0.0005 0.0000
vt 0.0974 0.9995 0.0000
vt 0.5643 0.6347 0.0000
vt 0.0005 0.6347 0.0000
vt 0.0005 0.6144 0.0000
vt 0.5643 0.6144 0.0000
vt 0.5690 0.0169 0.0000
vt 0.0052 0.0169 0.0000
vt 0.0052 0.0005 0.0000
vt 0.5690 0.0005 0.0000
vt 0.5644 0.0287 0.0000
vt 0.5644 0.5924 0.0000
vt 0.5383 0.5924 0.0000
vt 0.5383 0.0287 0.0000
vt 0.5643 0.6567 0.0000
vt 0.0005 0.6567 0.0000
vt 0.5133 0.5924 0.0000
vt 0.5133 0.0287 0.0000
vt 0.5643 0.6795 0.0000
vt 0.0005 0.6795 0.0000
vt 0.4902 0.5924 0.0000
vt 0.4902 0.0287 0.0000
vt 0.5643 0.7024 0.0000
vt 0.0005 0.7024 0.0000
vt 0.4699 0.5924 0.0000
vt 0.4699 0.0287 0.0000
vt 0.5643 0.7244 0.0000
vt 0.0005 0.7244 0.0000
vt 0.6624 0.5643 0.0000
vt 0.6624 0.0005 0.0000
vt 0.6826 0.0005 0.0000
vt 0.6826 0.5643 0.0000
vt 0.5643 0.7446 0.0000
vt 0.0005 0.7446 0.0000
vt 0.7057 0.0005 0.0000
vt 0.7057 0.5643 0.0000
vt 0.0005 0.7657 0.0000
vt 0.5643 0.7657 0.0000
vt 0.5643 0.9311 0.0000
vt 0.0005 0.9311 0.0000
vt 0.5643 0.7624 0.0000
vt 0.0005 0.7624 0.0000
vt 0.7308 0.0005 0.0000
vt 0.7308 0.5643 0.0000
vt 0.5643 0.9562 0.0000
vt 0.0005 0.9562 0.0000
vt 0.0370 0.0287 0.0000
vt 0.0370 0.5924 0.0000
vt 0.0193 0.5924 0.0000
vt 0.0193 0.0287 0.0000
vt 0.8962 0.0005 0.0000
vt 0.8962 0.5643 0.0000
vt 0.5643 0.9793 0.0000
vt 0.0005 0.9793 0.0000
vt 0.0573 0.0287 0.0000
vt 0.0573 0.5924 0.0000
vt 1.4875 -3.7261 0.0000
vt 1.4875 4.3472 0.0000
vt -0.8360 4.3472 0.0000
vt -0.8360 -3.7261 0.0000
vt 0.5643 0.9995 0.0000
vt -6.6334 -23.2952 0.0000
vt -6.6334 23.9163 0.0000
vt 0.4288 0.0287 0.0000
vt 0.4288 0.5924 0.0000
vt 0.6588 0.0287 0.0000
vt 0.6588 0.5924 0.0000
vt 0.6385 0.5924 0.0000
vt 0.6385 0.0287 0.0000
vt 6.9542 -23.2952 0.0000
vt 6.9542 23.9163 0.0000
vt 0.4491 0.0287 0.0000
vt 0.4491 0.5924 0.0000
vt 0.6154 0.5924 0.0000
vt 0.6154 0.0287 0.0000
vt 0.0005 0.5831 0.0000
vt 0.0005 0.0193 0.0000
vt 0.0169 0.0193 0.0000
vt 0.0169 0.5831 0.0000
vt 0.4669 0.0287 0.0000
vt 0.4669 0.5924 0.0000
vt 0.5904 0.5924 0.0000
vt 0.5904 0.0287 0.0000
vt 0.0005 0.5967 0.0000
vt 0.5643 0.5967 0.0000
# 151 texture coords

o Circle_Circle_002
g Circle_Circle_002
usemtl 14___Default
s off
f 1/1/1 2/2/1 3/3/1 
f 3/3/1 4/4/1 1/1/1 
f 2/5/1 5/6/1 6/7/1 
f 6/7/1 3/8/1 2/5/1 
f 5/9/1 7/10/1 8/11/1 
f 8/11/1 6/12/1 5/9/1 
f 7/13/1 9/14/1 10/15/1 
f 10/15/1 8/16/1 7/13/1 
f 9/17/1 11/18/1 12/19/1 
f 12/19/1 10/20/1 9/17/1 
f 11/21/1 13/17/1 14/22/1 
f 14/22/1 12/23/1 11/21/1 
f 13/24/1 15/17/1 16/25/1 
f 16/25/1 14/26/1 13/24/1 
f 15/27/1 17/28/1 18/29/1 
f 18/29/1 16/30/1 15/27/1 
f 17/17/1 19/31/1 20/32/1 
f 20/32/1 18/33/1 17/17/1 
f 19/5/1 21/6/1 22/7/1 
f 22/7/1 20/8/1 19/5/1 
f 21/9/1 23/10/1 24/34/1 
f 24/34/1 22/12/1 21/9/1 
f 23/13/1 25/14/1 26/15/1 
f 26/15/1 24/16/1 23/13/1 
f 25/17/1 27/18/1 28/19/1 
f 28/19/1 26/20/1 25/17/1 
f 27/21/1 29/17/1 30/22/1 
f 30/22/1 28/23/1 27/21/1 
f 29/24/1 31/17/1 32/25/1 
f 32/25/1 30/26/1 29/24/1 
f 32/35/1 31/36/1 33/37/1 
f 33/37/1 34/38/1 32/35/1 
f 35/39/2 36/40/2 37/41/2 
f 37/41/2 38/42/2 35/39/2 
f 39/43/2 40/44/2 36/40/2 
f 36/40/2 35/39/2 39/43/2 
f 41/45/2 42/46/2 40/44/2 
f 40/44/2 39/43/2 41/45/2 
f 43/47/2 44/48/2 42/46/2 
f 42/46/2 41/45/2 43/47/2 
f 45/49/2 46/50/2 44/48/2 
f 44/48/2 43/47/2 45/49/2 
f 47/51/2 48/52/2 46/50/2 
f 46/50/2 45/49/2 47/51/2 
f 49/53/2 50/54/2 48/52/2 
f 48/52/2 47/51/2 49/53/2 
f 51/55/2 52/56/2 50/54/2 
f 50/54/2 49/53/2 51/55/2 
f 53/57/2 54/58/2 52/56/2 
f 52/56/2 51/55/2 53/57/2 
f 55/59/2 56/60/2 54/58/2 
f 54/58/2 53/57/2 55/59/2 
f 57/23/2 58/21/2 56/17/2 
f 56/17/2 55/22/2 57/23/2 
f 59/20/2 60/17/2 58/18/2 
f 58/18/2 57/19/2 59/20/2 
f 61/16/2 62/13/2 60/14/2 
f 60/14/2 59/15/2 61/16/2 
f 63/12/2 64/9/2 62/10/2 
f 62/10/2 61/11/2 63/12/2 
f 65/61/2 66/62/2 64/63/2 
f 64/63/2 63/64/2 65/61/2 
f 65/65/2 67/66/2 68/67/2 
f 68/67/2 66/68/2 65/65/2 
f 14/69/3 47/70/3 45/71/3 
f 45/71/3 12/72/3 14/69/3 
f 33/73/4 68/74/4 67/75/4 
f 67/75/4 34/76/4 33/73/4 
f 17/77/5 52/78/5 54/79/5 
f 54/79/5 19/80/5 17/77/5 
f 16/81/6 49/82/6 47/70/6 
f 47/70/6 14/69/6 16/81/6 
f 19/80/7 54/79/7 56/83/7 
f 56/83/7 21/84/7 19/80/7 
f 18/85/8 51/86/8 49/82/8 
f 49/82/8 16/81/8 18/85/8 
f 21/84/9 56/83/9 58/87/9 
f 58/87/9 23/88/9 21/84/9 
f 20/89/10 53/90/10 51/86/10 
f 51/86/10 18/85/10 20/89/10 
f 23/88/11 58/87/11 60/91/11 
f 60/91/11 25/92/11 23/88/11 
f 22/93/12 55/94/12 53/90/12 
f 53/90/12 20/89/12 22/93/12 
f 25/95/13 60/96/13 62/97/13 
f 62/97/13 27/98/13 25/95/13 
f 24/99/14 57/100/14 55/94/14 
f 55/94/14 22/93/14 24/99/14 
f 27/98/15 62/97/15 64/101/15 
f 64/101/15 29/102/15 27/98/15 
f 1/103/16 37/104/16 36/105/16 
f 36/105/16 2/106/16 1/103/16 
f 26/107/17 59/108/17 57/100/17 
f 57/100/17 24/99/17 26/107/17 
f 29/102/18 64/101/18 66/109/18 
f 66/109/18 31/110/18 29/102/18 
f 2/106/19 36/105/19 40/111/19 
f 40/111/19 5/112/19 2/106/19 
f 28/113/20 61/114/20 59/115/20 
f 59/115/20 26/116/20 28/113/20 
f 31/110/21 66/109/21 68/117/21 
f 68/117/21 33/118/21 31/110/21 
f 5/112/22 40/111/22 42/119/22 
f 42/119/22 7/120/22 5/112/22 
f 30/121/23 63/122/23 61/114/23 
f 61/114/23 28/113/23 30/121/23 
f 3/123/24 35/124/24 38/125/24 
f 38/125/24 4/126/24 3/123/24 
f 7/120/25 42/119/25 44/127/25 
f 44/127/25 9/27/25 7/120/25 
f 32/128/26 65/129/26 63/122/26 
f 63/122/26 30/121/26 32/128/26 
f 6/130/27 39/131/27 35/124/27 
f 35/124/27 3/123/27 6/130/27 
f 9/132/28 44/133/28 46/134/28 
f 46/134/28 11/135/28 9/132/28 
f 34/136/29 67/137/29 65/129/29 
f 65/129/29 32/128/29 34/136/29 
f 8/138/30 41/139/30 39/131/30 
f 39/131/30 6/130/30 8/138/30 
f 11/135/31 46/134/31 48/140/31 
f 48/140/31 13/141/31 11/135/31 
f 4/142/4 38/143/4 37/144/4 
f 37/144/4 1/145/4 4/142/4 
f 10/146/32 43/147/32 41/139/32 
f 41/139/32 8/138/32 10/146/32 
f 13/141/33 48/140/33 50/148/33 
f 50/148/33 15/149/33 13/141/33 
f 12/72/34 45/71/34 43/150/34 
f 43/150/34 10/151/34 12/72/34 
f 15/149/35 50/148/35 52/78/35 
f 52/78/35 17/77/35 15/149/35 
# 132 faces

