# 3ds Max Wavefront OBJ Exporter v0.99 - (c)2007 guruware
# File Created: 05.12.2021 16:13:21

mtllib parede_esquerda_baixo.mtl

#
# object Box008
#

v  -81.8724 75.4939 69.5589
v  -81.8724 75.4939 79.5589
v  118.1276 75.4939 79.5589
v  118.1276 75.4939 69.5589
v  -81.8724 0.4939 69.5589
v  -81.8724 0.4939 79.5589
v  118.1276 0.4939 79.5589
v  118.1276 0.4939 69.5589
v  -69.8366 0.4939 69.5589
v  -69.8366 0.4939 79.5589
v  -22.9508 0.4939 79.5589
v  -22.9508 0.4939 69.5589
v  -69.4342 30.7210 69.5589
v  -69.4342 30.7210 79.5589
v  -68.0974 35.8550 69.5589
v  -68.0974 35.8550 79.5589
v  -65.9265 40.5865 69.5589
v  -65.9265 40.5865 79.5589
v  -63.0050 44.7337 69.5589
v  -63.0050 44.7337 79.5589
v  -59.4451 48.1372 69.5589
v  -59.4451 48.1372 79.5589
v  -55.3837 50.6663 69.5589
v  -55.3837 50.6663 79.5589
v  -50.9767 52.2237 69.5589
v  -50.9767 52.2237 79.5589
v  -46.3937 52.7495 69.5589
v  -46.3937 52.7495 79.5589
v  -41.8106 52.2237 69.5589
v  -41.8106 52.2237 79.5589
v  -37.4037 50.6663 69.5589
v  -37.4037 50.6663 79.5589
v  -33.3422 48.1373 69.5589
v  -33.3422 48.1373 79.5589
v  -29.7823 44.7337 69.5589
v  -29.7823 44.7337 79.5589
v  -26.8608 40.5865 69.5589
v  -26.8608 40.5865 79.5589
v  -24.6899 35.8550 69.5589
v  -24.6899 35.8550 79.5589
v  -23.3531 30.7210 69.5589
v  -23.3531 30.7210 79.5589
v  -60.9702 42.3632 69.5589
v  -63.5338 38.7240 69.5589
v  -63.5338 38.7240 79.5589
v  -60.9702 42.3632 79.5589
v  -65.4388 34.5721 69.5589
v  -65.4388 34.5721 79.5589
v  -66.6118 30.0670 69.5589
v  -66.6118 30.0670 79.5589
v  -26.1755 30.0670 69.5589
v  -27.3486 34.5721 69.5589
v  -27.3486 34.5721 79.5589
v  -26.1755 30.0670 79.5589
v  -29.2535 38.7240 69.5589
v  -29.2535 38.7240 79.5589
v  -31.8172 42.3632 69.5589
v  -31.8172 42.3632 79.5589
v  -34.9410 45.3498 69.5589
v  -34.9410 45.3498 79.5589
v  -38.5049 47.5690 69.5589
v  -38.5049 47.5690 79.5589
v  -42.3720 48.9356 69.5589
v  -42.3720 48.9356 79.5589
v  -46.3937 49.3970 69.5589
v  -46.3937 49.3970 79.5589
v  -50.4154 48.9356 69.5589
v  -50.4153 48.9356 79.5589
v  -54.2824 47.5690 69.5589
v  -54.2824 47.5690 79.5589
v  -57.8463 45.3498 69.5589
v  -57.8463 45.3498 79.5589
v  -66.9640 0.4939 69.5589
v  -66.9640 0.4939 79.5589
v  -25.8234 0.4939 69.5589
v  -25.8234 0.4939 79.5589
# 76 vertices

vn 0.0000 1.0000 -0.0000
vn -1.0000 0.0000 -0.0000
vn 1.0000 0.0000 0.0000
vn 0.0000 -1.0000 -0.0000
vn 0.9999 -0.0133 0.0000
vn 0.9999 -0.0133 -0.0000
vn 0.9677 -0.2520 -0.0000
vn 0.9089 -0.4170 -0.0000
vn 0.8175 -0.5759 -0.0000
vn 0.6911 -0.7228 -0.0000
vn 0.5286 -0.8489 -0.0000
vn 0.3332 -0.9429 -0.0000
vn 0.1140 -0.9935 -0.0000
vn -0.1140 -0.9935 0.0000
vn -0.3332 -0.9429 0.0000
vn -0.5286 -0.8489 0.0000
vn -0.6911 -0.7228 0.0000
vn -0.8175 -0.5759 0.0000
vn -0.9089 -0.4170 0.0000
vn -0.9677 -0.2520 0.0000
vn -0.9999 -0.0133 0.0000
vn 0.0000 0.0000 -1.0000
vn -0.0000 0.0000 1.0000
vn -0.8175 0.5759 0.0000
vn -0.9089 0.4170 0.0000
vn -0.9677 0.2520 0.0000
vn 0.9677 0.2520 -0.0000
vn 0.9089 0.4170 -0.0000
vn 0.8175 0.5759 -0.0000
vn 0.6911 0.7228 -0.0000
vn 0.5286 0.8489 -0.0000
vn 0.3332 0.9429 -0.0000
vn 0.1140 0.9935 -0.0000
vn -0.1140 0.9935 0.0000
vn -0.3332 0.9429 0.0000
vn -0.5286 0.8489 0.0000
vn -0.6911 0.7228 0.0000
vn -0.9999 0.0119 0.0000
vn 0.9999 0.0119 -0.0000
# 39 vertex normals

vt 0.0000 0.0000 0.0000
vt 1.0000 0.0000 0.0000
vt 1.0000 1.0000 0.0000
vt 0.0000 1.0000 0.0000
vt 1.0000 0.0602 0.0000
vt 0.0000 0.0602 0.0000
vt -0.0000 0.2946 0.0000
vt 1.0000 0.2946 0.0000
vt 0.7054 0.0000 0.0000
vt 0.7074 0.4030 0.0000
vt 0.7141 0.4715 0.0000
vt 0.7249 0.5346 0.0000
vt 0.7395 0.5899 0.0000
vt 0.7573 0.6352 0.0000
vt 0.7777 0.6690 0.0000
vt 0.7997 0.6897 0.0000
vt 0.8226 0.6967 0.0000
vt 0.8455 0.6897 0.0000
vt 0.8676 0.6690 0.0000
vt 0.8879 0.6352 0.0000
vt 0.9057 0.5899 0.0000
vt 0.9203 0.5346 0.0000
vt 0.9311 0.4715 0.0000
vt 0.9378 0.4030 0.0000
vt 0.9398 0.0000 0.0000
vt 0.2926 0.4030 0.0000
vt 0.2946 0.0000 0.0000
vt 0.2859 0.4715 0.0000
vt 0.2751 0.5346 0.0000
vt 0.2605 0.5899 0.0000
vt 0.2427 0.6352 0.0000
vt 0.2223 0.6690 0.0000
vt 0.2003 0.6897 0.0000
vt 0.1774 0.6967 0.0000
vt 0.1545 0.6897 0.0000
vt 0.1324 0.6690 0.0000
vt 0.1121 0.6352 0.0000
vt 0.0943 0.5899 0.0000
vt 0.0797 0.5346 0.0000
vt 0.0689 0.4715 0.0000
vt 0.0622 0.4030 0.0000
vt 0.0602 0.0000 0.0000
vt 1.0000 0.2802 0.0000
vt 0.0000 0.2802 0.0000
vt 0.0000 0.0745 0.0000
vt 1.0000 0.0745 0.0000
# 46 texture coords

o Box008
g Box008
usemtl Material__2
s 4
f 1/1/1 2/2/1 3/3/1 
f 3/3/1 4/4/1 1/1/1 
s 8
f 5/1/2 6/2/2 2/3/2 
f 2/3/2 1/4/2 5/1/2 
s 32
f 7/1/3 8/2/3 4/3/3 
f 4/3/3 3/4/3 7/1/3 
s 2
f 9/5/4 10/6/4 6/1/4 
f 6/1/4 5/2/4 9/5/4 
f 11/7/4 12/8/4 8/3/4 
f 8/3/4 7/4/4 11/7/4 
s off
f 10/1/5 9/1/5 13/1/5 
f 13/1/6 14/1/6 10/1/6 
f 14/1/7 13/1/7 15/1/7 
f 15/1/7 16/1/7 14/1/7 
f 16/1/8 15/1/8 17/1/8 
f 17/1/8 18/1/8 16/1/8 
f 18/1/9 17/1/9 19/1/9 
f 19/1/9 20/1/9 18/1/9 
f 20/1/10 19/1/10 21/1/10 
f 21/1/10 22/1/10 20/1/10 
f 22/1/11 21/1/11 23/1/11 
f 23/1/11 24/1/11 22/1/11 
f 24/1/12 23/1/12 25/1/12 
f 25/1/12 26/1/12 24/1/12 
f 26/1/13 25/1/13 27/1/13 
f 27/1/13 28/1/13 26/1/13 
f 28/1/14 27/1/14 29/1/14 
f 29/1/14 30/1/14 28/1/14 
f 30/1/15 29/1/15 31/1/15 
f 31/1/15 32/1/15 30/1/15 
f 32/1/16 31/1/16 33/1/16 
f 33/1/16 34/1/16 32/1/16 
f 34/1/17 33/1/17 35/1/17 
f 35/1/17 36/1/17 34/1/17 
f 36/1/18 35/1/18 37/1/18 
f 37/1/18 38/1/18 36/1/18 
f 38/1/19 37/1/19 39/1/19 
f 39/1/19 40/1/19 38/1/19 
f 40/1/20 39/1/20 41/1/20 
f 41/1/20 42/1/20 40/1/20 
f 42/1/21 41/1/21 12/1/21 
f 12/1/21 11/1/21 42/1/21 
s 64
f 8/1/22 12/9/22 41/10/22 
f 4/4/22 8/1/22 41/10/22 
f 4/4/22 41/10/22 39/11/22 
f 4/4/22 39/11/22 37/12/22 
f 4/4/22 37/12/22 35/13/22 
f 4/4/22 35/13/22 33/14/22 
f 4/4/22 33/14/22 31/15/22 
f 4/4/22 31/15/22 29/16/22 
f 4/4/22 29/16/22 27/17/22 
f 4/4/22 27/17/22 25/18/22 
f 1/3/22 4/4/22 25/18/22 
f 1/3/22 25/18/22 23/19/22 
f 1/3/22 23/19/22 21/20/22 
f 1/3/22 21/20/22 19/21/22 
f 1/3/22 19/21/22 17/22/22 
f 1/3/22 17/22/22 15/23/22 
f 1/3/22 15/23/22 13/24/22 
f 5/2/22 1/3/22 13/24/22 
f 5/2/22 13/24/22 9/25/22 
s 16
f 42/26/23 11/27/23 7/2/23 
f 42/26/23 7/2/23 3/3/23 
f 40/28/23 42/26/23 3/3/23 
f 38/29/23 40/28/23 3/3/23 
f 36/30/23 38/29/23 3/3/23 
f 34/31/23 36/30/23 3/3/23 
f 32/32/23 34/31/23 3/3/23 
f 30/33/23 32/32/23 3/3/23 
f 28/34/23 30/33/23 3/3/23 
f 26/35/23 28/34/23 3/3/23 
f 26/35/23 3/3/23 2/4/23 
f 24/36/23 26/35/23 2/4/23 
f 22/37/23 24/36/23 2/4/23 
f 20/38/23 22/37/23 2/4/23 
f 18/39/23 20/38/23 2/4/23 
f 16/40/23 18/39/23 2/4/23 
f 14/41/23 16/40/23 2/4/23 
f 14/41/23 2/4/23 6/1/23 
f 14/41/23 6/1/23 10/42/23 
s off
f 43/1/24 44/1/24 45/1/24 
f 45/1/24 46/1/24 43/1/24 
f 44/1/25 47/1/25 48/1/25 
f 48/1/25 45/1/25 44/1/25 
f 47/1/26 49/1/26 50/1/26 
f 50/1/26 48/1/26 47/1/26 
f 51/1/27 52/1/27 53/1/27 
f 53/1/27 54/1/27 51/1/27 
f 52/1/28 55/1/28 56/1/28 
f 56/1/28 53/1/28 52/1/28 
f 55/1/29 57/1/29 58/1/29 
f 58/1/29 56/1/29 55/1/29 
f 57/1/30 59/1/30 60/1/30 
f 60/1/30 58/1/30 57/1/30 
f 59/1/31 61/1/31 62/1/31 
f 62/1/31 60/1/31 59/1/31 
f 61/1/32 63/1/32 64/1/32 
f 64/1/32 62/1/32 61/1/32 
f 63/1/33 65/1/33 66/1/33 
f 66/1/33 64/1/33 63/1/33 
f 65/1/34 67/1/34 68/1/34 
f 68/1/34 66/1/34 65/1/34 
f 67/1/35 69/1/35 70/1/35 
f 70/1/35 68/1/35 67/1/35 
f 69/1/36 71/1/36 72/1/36 
f 72/1/36 70/1/36 69/1/36 
f 71/1/37 43/1/37 46/1/37 
f 46/1/37 72/1/37 71/1/37 
f 49/1/38 73/1/38 74/1/38 
f 74/1/38 50/1/38 49/1/38 
s 2
f 75/43/4 76/44/4 74/45/4 
f 74/45/4 73/46/4 75/43/4 
s off
f 54/1/39 76/1/39 75/1/39 
f 75/1/39 51/1/39 54/1/39 
# 114 faces

