# 3ds Max Wavefront OBJ Exporter v0.99 - (c)2007 guruware
# File Created: 05.12.2021 17:00:06

mtllib porta-meio.mtl

#
# object Circle_002_Circle_003
#

v  -75.2774 48.3521 -6.8936
v  -76.8218 51.7396 -3.0657
v  -78.5838 54.2567 1.3014
v  -80.4956 55.8067 6.0400
v  -82.4839 56.3301 10.9681
v  -82.4839 -0.5545 10.9681
v  -72.4882 -0.5545 -13.8067
v  -73.0682 39.5152 -12.3693
v  -74.0100 44.2244 -10.0350
v  -70.5762 44.2244 -8.6496
v  -69.6344 39.5152 -10.9839
v  -69.0545 -0.5545 -12.4214
v  -79.0501 -0.5545 12.3535
v  -79.0501 56.3301 12.3535
v  -77.0619 55.8067 7.4254
v  -75.1500 54.2567 2.6868
v  -73.3880 51.7396 -1.6804
v  -71.8437 48.3521 -5.5082
# 18 vertices

vn 0.9274 0.0000 0.3742
vn -0.9274 0.0000 -0.3742
vn -0.2374 -0.7730 0.5883
vn -0.0367 -0.9952 0.0909
vn 0.0000 1.0000 -0.0000
vn -0.2892 -0.6344 0.7169
vn -0.1086 -0.9569 0.2692
vn -0.3300 -0.4714 0.8179
vn -0.1764 -0.8819 0.4372
vn 0.3742 0.0000 -0.9274
vn -0.3739 -0.0387 0.9267
# 11 vertex normals

vt 0.8295 0.8456 0.0000
vt 0.7588 0.9041 0.0000
vt 0.6782 0.9476 0.0000
vt 0.5906 0.9744 0.0000
vt 0.4996 0.9835 0.0000
vt 0.4996 0.0003 0.0000
vt 0.9572 0.0003 0.0000
vt 0.9307 0.6929 0.0000
vt 0.8876 0.7742 0.0000
vt 0.1183 0.7815 0.0000
vt 0.0770 0.6999 0.0000
vt 0.0515 0.0053 0.0000
vt 0.4902 0.0053 0.0000
vt 0.4902 0.9914 0.0000
vt 0.4029 0.9823 0.0000
vt 0.3190 0.9555 0.0000
vt 0.2417 0.9118 0.0000
vt 0.1739 0.8531 0.0000
vt 0.9741 0.1457 0.0000
vt 0.9178 0.1229 0.0000
vt 0.9431 0.0601 0.0000
vt 0.9995 0.0828 0.0000
vt 0.8812 0.3762 0.0000
vt 0.8248 0.3534 0.0000
vt 0.8574 0.2725 0.0000
vt 0.9138 0.2952 0.0000
vt 0.2956 0.4587 0.0000
vt 0.2935 0.3979 0.0000
vt 0.7319 0.3828 0.0000
vt 0.7340 0.4436 0.0000
vt 0.0005 0.4839 0.0000
vt 0.0005 0.4275 0.0000
vt 0.0683 0.4483 0.0000
vt 0.0683 0.5047 0.0000
vt 0.8888 0.1947 0.0000
vt 0.9452 0.2174 0.0000
vt 0.1456 0.4638 0.0000
vt 0.1456 0.5202 0.0000
vt 0.9346 0.9340 0.0000
vt 0.9346 0.9904 0.0000
vt 0.0005 0.9904 0.0000
vt 0.0005 0.9340 0.0000
vt 0.8036 0.4733 0.0000
vt 0.8036 0.5297 0.0000
# 44 texture coords

o Circle_002_Circle_003
g Circle_002_Circle_003
usemtl 19___Default
s off
f 1/1/1 2/2/1 3/3/1 
f 4/4/1 5/5/1 6/6/1 
f 3/3/1 4/4/1 6/6/1 
f 6/6/1 7/7/1 8/8/1 
f 3/3/1 6/6/1 8/8/1 
f 1/1/1 3/3/1 8/8/1 
f 1/1/1 8/8/1 9/9/1 
f 10/10/2 11/11/2 12/12/2 
f 13/13/2 14/14/2 15/15/2 
f 12/12/2 13/13/2 15/15/2 
f 10/10/2 12/12/2 15/15/2 
f 15/15/2 16/16/2 17/17/2 
f 10/10/2 15/15/2 17/17/2 
f 10/10/2 17/17/2 18/18/2 
f 17/19/3 2/20/3 1/21/3 
f 1/21/3 18/22/3 17/19/3 
f 14/23/4 5/24/4 4/25/4 
f 4/25/4 15/26/4 14/23/4 
f 12/27/5 7/28/5 6/29/5 
f 6/29/5 13/30/5 12/27/5 
f 18/31/6 1/32/6 9/33/6 
f 9/33/6 10/34/6 18/31/6 
f 15/26/7 4/25/7 3/35/7 
f 3/35/7 16/36/7 15/26/7 
f 10/34/8 9/33/8 8/37/8 
f 8/37/8 11/38/8 10/34/8 
f 16/36/9 3/35/9 2/20/9 
f 2/20/9 17/19/9 16/36/9 
f 13/39/10 6/40/10 5/41/10 
f 5/41/10 14/42/10 13/39/10 
f 11/38/11 8/37/11 7/43/11 
f 7/43/11 12/44/11 11/38/11 
# 32 faces

#
# object Circle_001_Circle_004
#

v  -69.3592 48.3521 37.8238
v  -67.5193 51.7396 34.1289
v  -65.4202 54.2567 29.9135
v  -63.1425 55.8067 25.3394
v  -60.7737 56.3301 20.5825
v  -60.7737 -0.5545 20.5825
v  -72.6821 -0.5545 44.4969
v  -71.9912 39.5152 43.1093
v  -70.8692 44.2244 40.8561
v  -74.1836 44.2244 39.2056
v  -75.3057 39.5152 41.4588
v  -75.9966 -0.5545 42.8464
v  -64.0882 -0.5545 18.9321
v  -64.0882 56.3301 18.9321
v  -66.4570 55.8067 23.6889
v  -68.7347 54.2567 28.2630
v  -70.8338 51.7396 32.4784
v  -72.6737 48.3521 36.1733
# 18 vertices

vn -0.8952 0.0000 -0.4458
vn 0.8952 0.0000 0.4458
vn 0.2828 -0.7730 -0.5679
vn 0.0437 -0.9952 -0.0877
vn 0.0000 1.0000 -0.0000
vn 0.3446 -0.6344 -0.6920
vn 0.1294 -0.9569 -0.2598
vn 0.3931 -0.4714 -0.7895
vn 0.2101 -0.8819 -0.4220
vn -0.4458 0.0000 0.8952
vn 0.4454 -0.0387 -0.8945
# 11 vertex normals

vt 0.8272 0.8564 0.0000
vt 0.7576 0.9153 0.0000
vt 0.6782 0.9590 0.0000
vt 0.5921 0.9859 0.0000
vt 0.5025 0.9950 0.0000
vt 0.5025 0.0073 0.0000
vt 0.9529 0.0073 0.0000
vt 0.9267 0.7030 0.0000
vt 0.8843 0.7848 0.0000
vt 0.1200 0.7840 0.0000
vt 0.0787 0.7020 0.0000
vt 0.0533 0.0039 0.0000
vt 0.4910 0.0039 0.0000
vt 0.4910 0.9950 0.0000
vt 0.4040 0.9858 0.0000
vt 0.3203 0.9588 0.0000
vt 0.2431 0.9150 0.0000
vt 0.1755 0.8560 0.0000
vt 0.5452 0.8718 0.0000
vt 0.6043 0.8508 0.0000
vt 0.6277 0.9167 0.0000
vt 0.5686 0.9377 0.0000
vt 0.4594 0.6301 0.0000
vt 0.5186 0.6091 0.0000
vt 0.5487 0.6940 0.0000
vt 0.4895 0.7149 0.0000
vt 0.4644 0.1507 0.0000
vt 0.5272 0.1502 0.0000
vt 0.5309 0.6029 0.0000
vt 0.4682 0.6034 0.0000
vt 0.4046 0.8265 0.0000
vt 0.4046 0.7637 0.0000
vt 0.4951 0.7637 0.0000
vt 0.4951 0.8265 0.0000
vt 0.5776 0.7756 0.0000
vt 0.5185 0.7966 0.0000
vt 0.4253 0.0005 0.0000
vt 0.4815 0.0005 0.0000
vt 0.4625 0.0803 0.0000
vt 0.4063 0.0803 0.0000
vt 0.9995 0.9645 0.0000
vt 0.9433 0.9645 0.0000
vt 0.9433 0.0005 0.0000
vt 0.9995 0.0005 0.0000
vt 0.4508 0.7594 0.0000
vt 0.3946 0.7594 0.0000
# 46 texture coords

o Circle_001_Circle_004
g Circle_001_Circle_004
usemtl 19___Default
s off
f 19/45/12 20/46/12 21/47/12 
f 22/48/12 23/49/12 24/50/12 
f 21/47/12 22/48/12 24/50/12 
f 24/50/12 25/51/12 26/52/12 
f 21/47/12 24/50/12 26/52/12 
f 19/45/12 21/47/12 26/52/12 
f 19/45/12 26/52/12 27/53/12 
f 28/54/13 29/55/13 30/56/13 
f 31/57/13 32/58/13 33/59/13 
f 30/56/13 31/57/13 33/59/13 
f 28/54/13 30/56/13 33/59/13 
f 33/59/13 34/60/13 35/61/13 
f 28/54/13 33/59/13 35/61/13 
f 28/54/13 35/61/13 36/62/13 
f 35/63/14 20/64/14 19/65/14 
f 19/65/14 36/66/14 35/63/14 
f 32/67/15 23/68/15 22/69/15 
f 22/69/15 33/70/15 32/67/15 
f 30/71/16 25/72/16 24/73/16 
f 24/73/16 31/74/16 30/71/16 
f 36/75/17 19/76/17 27/77/17 
f 27/77/17 28/78/17 36/75/17 
f 33/70/18 22/69/18 21/79/18 
f 21/79/18 34/80/18 33/70/18 
f 28/81/19 27/82/19 26/83/19 
f 26/83/19 29/84/19 28/81/19 
f 34/80/20 21/79/20 20/64/20 
f 20/64/20 35/63/20 34/80/20 
f 31/85/21 24/86/21 23/87/21 
f 23/87/21 32/88/21 31/85/21 
f 29/84/22 26/83/22 25/89/22 
f 25/89/22 30/90/22 29/84/22 
# 32 faces

#
# object Circle
#

v  -69.6934 36.9861 -11.2193
v  -69.6934 -0.6593 -11.7272
v  -69.6934 -0.6593 -15.6774
v  -69.6934 37.7567 -15.0935
v  -69.6934 41.9453 -9.7149
v  -69.6934 43.4570 -13.3644
v  -69.6934 46.5158 -7.2720
v  -69.6934 48.7104 -10.5564
v  -69.6934 50.5219 -3.9843
v  -69.6934 53.3150 -6.7775
v  -69.6934 53.8095 0.0217
v  -69.6934 57.0939 -2.1728
v  -69.6934 56.2525 4.5922
v  -69.6934 59.9019 3.0806
v  -69.6934 57.7568 9.5514
v  -69.6934 61.6311 8.7808
v  -69.6934 58.2647 14.7089
v  -69.6934 62.2149 14.7089
v  -69.6934 57.7568 19.8664
v  -69.6934 61.6311 20.6369
v  -69.6934 56.2525 24.8256
v  -69.6934 59.9019 26.3372
v  -69.6934 53.8095 29.3960
v  -69.6934 57.0939 31.5906
v  -69.6934 50.5219 33.4021
v  -69.6934 53.3150 36.1952
v  -69.6934 46.5158 36.6898
v  -69.6934 48.7104 39.9742
v  -69.6934 41.9453 39.1327
v  -69.6934 43.4570 42.7821
v  -69.6934 36.9861 40.6370
v  -69.6934 37.7567 44.5113
v  -69.6934 -0.6593 45.0952
v  -69.6934 -0.6593 41.1450
v  -83.1297 -0.6593 -15.6774
v  -83.1297 -0.6593 -11.7272
v  -83.1297 36.9861 -11.2193
v  -83.1297 37.7567 -15.0935
v  -83.1297 41.9453 -9.7149
v  -83.1297 43.4570 -13.3644
v  -83.1297 46.5158 -7.2720
v  -83.1297 48.7104 -10.5564
v  -83.1297 50.5219 -3.9843
v  -83.1297 53.3150 -6.7775
v  -83.1297 53.8095 0.0217
v  -83.1297 57.0939 -2.1728
v  -83.1297 56.2525 4.5922
v  -83.1297 59.9019 3.0806
v  -83.1297 57.7568 9.5514
v  -83.1297 61.6311 8.7808
v  -83.1297 58.2647 14.7089
v  -83.1297 62.2149 14.7089
v  -83.1297 57.7568 19.8664
v  -83.1297 61.6311 20.6369
v  -83.1297 56.2525 24.8256
v  -83.1297 59.9019 26.3372
v  -83.1297 53.8095 29.3960
v  -83.1297 57.0939 31.5906
v  -83.1297 50.5219 33.4021
v  -83.1297 53.3150 36.1952
v  -83.1297 46.5158 36.6898
v  -83.1297 48.7104 39.9742
v  -83.1297 41.9453 39.1327
v  -83.1297 43.4570 42.7821
v  -83.1297 36.9861 40.6370
v  -83.1297 37.7567 44.5113
v  -83.1297 -0.6593 45.0952
v  -83.1297 -0.6593 41.1450
# 68 vertices

vn 1.0000 0.0000 -0.0000
vn -1.0000 0.0000 -0.0000
vn 0.0000 0.6344 0.7730
vn 0.0000 -0.8819 -0.4714
vn 0.0000 0.4714 0.8819
vn 0.0000 0.0152 -0.9999
vn 0.0000 -0.7730 -0.6344
vn 0.0000 0.2903 0.9569
vn 0.0000 0.2903 -0.9569
vn 0.0000 -0.6344 -0.7730
vn 0.0000 0.0152 0.9999
vn 0.0000 0.4714 -0.8819
vn 0.0000 -0.4714 -0.8819
vn 0.0000 -0.0135 0.9999
vn 0.0000 0.6344 -0.7730
vn 0.0000 -0.2903 -0.9569
vn 0.0000 -0.2903 0.9569
vn 0.0000 0.7730 -0.6344
vn 0.0000 -0.0135 -0.9999
vn 0.0000 -0.4714 0.8819
vn 0.0000 0.8819 -0.4714
vn 0.0000 -1.0000 -0.0000
vn 0.0000 -0.6344 0.7730
vn 0.0000 0.9569 -0.2903
vn 0.0000 -0.7730 0.6344
vn 0.0000 0.9952 -0.0980
vn 0.0000 -0.8819 0.4714
vn 0.0000 0.9952 0.0980
vn 0.0000 -0.9569 0.2903
vn 0.0000 0.9569 0.2903
vn 0.0000 -0.9952 0.0980
vn 0.0000 0.8819 0.4714
vn 0.0000 -0.9952 -0.0980
vn 0.0000 0.7730 0.6344
vn 0.0000 -0.9569 -0.2903
# 35 vertex normals

vt 0.0005 0.9795 0.0000
vt 0.0137 0.0005 0.0000
vt 0.1164 0.0005 0.0000
vt 0.1012 0.9995 0.0000
vt 0.0005 0.7661 0.0000
vt 0.2327 0.0005 0.0000
vt 0.8309 0.1195 0.0000
vt 0.5639 0.9995 0.0000
vt 0.0005 0.2447 0.0000
vt 0.7577 0.0005 0.0000
vt 0.9995 0.5566 0.0000
vt 0.1292 0.8373 0.0000
vt 0.6596 0.0005 0.0000
vt 0.7594 0.8596 0.0000
vt 0.1152 0.9995 0.0000
vt 0.0005 0.0120 0.0000
vt 0.9274 0.6700 0.0000
vt 0.0582 0.6605 0.0000
vt 0.0005 0.0005 0.0000
vt 0.9995 0.0114 0.0000
vt 0.6599 0.0640 0.0000
vt 0.6618 0.9331 0.0000
vt 0.0027 0.9995 0.0000
vt 0.6608 0.0554 0.0000
vt 0.6740 0.9245 0.0000
vt 0.0158 0.9995 0.0000
vt 0.6659 0.0698 0.0000
vt 0.6602 0.9389 0.0000
vt 0.0005 0.9995 0.0000
vt 0.0070 0.0005 0.0000
vt 0.8696 0.7518 0.0000
vt 0.0005 0.6662 0.0000
vt 0.9995 0.0989 0.0000
vt 0.0005 0.1164 0.0000
vt 0.0005 0.0137 0.0000
vt 0.9795 0.0005 0.0000
vt 0.9995 0.1012 0.0000
vt 0.8537 0.4838 0.0000
vt 0.9838 0.4838 0.0000
vt 0.9838 0.5284 0.0000
vt 0.8537 0.5284 0.0000
vt 0.7124 0.7820 0.0000
vt 0.8425 0.7820 0.0000
vt 0.8425 0.8262 0.0000
vt 0.7124 0.8262 0.0000
vt 0.8537 0.4329 0.0000
vt 0.9838 0.4329 0.0000
vt 0.2454 0.2719 0.0000
vt 0.2454 0.1418 0.0000
vt 0.6173 0.1418 0.0000
vt 0.6173 0.2719 0.0000
vt 0.8425 0.8650 0.0000
vt 0.7124 0.8650 0.0000
vt 0.8537 0.3777 0.0000
vt 0.9838 0.3777 0.0000
vt 0.1902 0.2719 0.0000
vt 0.1902 0.1418 0.0000
vt 0.9995 0.2984 0.0000
vt 0.0005 0.2984 0.0000
vt 0.9995 0.0005 0.0000
vt 0.8537 0.0057 0.0000
vt 0.9838 0.0057 0.0000
vt 0.1393 0.2719 0.0000
vt 0.1393 0.1418 0.0000
vt 0.9995 0.3403 0.0000
vt 0.0005 0.3403 0.0000
vt 0.7124 0.0057 0.0000
vt 0.8425 0.0057 0.0000
vt 0.8425 0.3702 0.0000
vt 0.7124 0.3702 0.0000
vt 0.0947 0.2719 0.0000
vt 0.0947 0.1418 0.0000
vt 0.9995 0.3692 0.0000
vt 0.0005 0.3692 0.0000
vt 0.8425 0.4183 0.0000
vt 0.7124 0.4183 0.0000
vt 0.8537 0.9059 0.0000
vt 0.9838 0.9059 0.0000
vt 0.9838 0.9505 0.0000
vt 0.8537 0.9505 0.0000
vt 0.3571 0.9995 0.0000
vt 0.3571 0.0005 0.0000
vt 0.8425 0.4625 0.0000
vt 0.7124 0.4625 0.0000
vt 0.8537 0.8550 0.0000
vt 0.9838 0.8550 0.0000
vt 0.1703 0.7044 0.0000
vt 0.3004 0.7044 0.0000
vt 0.3004 0.7427 0.0000
vt 0.1703 0.7427 0.0000
vt 0.8425 0.5013 0.0000
vt 0.7124 0.5013 0.0000
vt 0.8537 0.7999 0.0000
vt 0.9838 0.7999 0.0000
vt 0.7124 0.5030 0.0000
vt 0.8425 0.5030 0.0000
vt 0.8425 0.5418 0.0000
vt 0.7124 0.5418 0.0000
vt 0.8537 0.7424 0.0000
vt 0.9838 0.7424 0.0000
vt 0.8425 0.5860 0.0000
vt 0.7124 0.5860 0.0000
vt 0.1703 0.6657 0.0000
vt 0.3004 0.6657 0.0000
vt 0.3004 0.7039 0.0000
vt 0.1703 0.7039 0.0000
vt 0.8537 0.6850 0.0000
vt 0.9838 0.6850 0.0000
vt 0.8425 0.6341 0.0000
vt 0.7124 0.6341 0.0000
vt 0.8537 0.6299 0.0000
vt 0.9838 0.6299 0.0000
vt 0.8425 0.6840 0.0000
vt 0.7124 0.6840 0.0000
vt 0.8537 0.5790 0.0000
vt 0.9838 0.5790 0.0000
vt 0.8425 0.7339 0.0000
vt 0.7124 0.7339 0.0000
vt 0.8537 0.5344 0.0000
vt 0.9838 0.5344 0.0000
# 120 texture coords

o Circle
g Circle
usemtl 20___Default
s off
f 37/91/23 38/92/23 39/93/23 
f 39/93/23 40/94/23 37/91/23 
f 41/95/23 37/96/23 40/97/23 
f 40/97/23 42/98/23 41/95/23 
f 43/99/23 41/100/23 42/101/23 
f 42/101/23 44/102/23 43/99/23 
f 45/103/23 43/104/23 44/105/23 
f 44/105/23 46/106/23 45/103/23 
f 47/107/23 45/108/23 46/109/23 
f 46/109/23 48/110/23 47/107/23 
f 49/111/23 47/112/23 48/113/23 
f 48/113/23 50/109/23 49/111/23 
f 51/114/23 49/115/23 50/116/23 
f 50/116/23 52/109/23 51/114/23 
f 53/117/23 51/118/23 52/119/23 
f 52/119/23 54/120/23 53/117/23 
f 55/121/23 53/122/23 54/109/23 
f 54/109/23 56/123/23 55/121/23 
f 57/95/23 55/96/23 56/97/23 
f 56/97/23 58/98/23 57/95/23 
f 59/99/23 57/100/23 58/101/23 
f 58/101/23 60/102/23 59/99/23 
f 61/103/23 59/104/23 60/105/23 
f 60/105/23 62/106/23 61/103/23 
f 63/107/23 61/108/23 62/109/23 
f 62/109/23 64/110/23 63/107/23 
f 65/111/23 63/112/23 64/113/23 
f 64/113/23 66/109/23 65/111/23 
f 67/114/23 65/115/23 66/116/23 
f 66/116/23 68/109/23 67/114/23 
f 69/124/23 70/125/23 67/126/23 
f 67/126/23 68/127/23 69/124/23 
f 71/124/24 72/125/24 73/126/24 
f 73/126/24 74/127/24 71/124/24 
f 74/109/24 73/114/24 75/115/24 
f 75/115/24 76/116/24 74/109/24 
f 76/109/24 75/111/24 77/112/24 
f 77/112/24 78/113/24 76/109/24 
f 78/110/24 77/107/24 79/108/24 
f 79/108/24 80/109/24 78/110/24 
f 80/106/24 79/103/24 81/104/24 
f 81/104/24 82/105/24 80/106/24 
f 82/102/24 81/99/24 83/100/24 
f 83/100/24 84/101/24 82/102/24 
f 84/98/24 83/95/24 85/96/24 
f 85/96/24 86/97/24 84/98/24 
f 86/123/24 85/121/24 87/122/24 
f 87/122/24 88/109/24 86/123/24 
f 88/120/24 87/117/24 89/118/24 
f 89/118/24 90/119/24 88/120/24 
f 90/109/24 89/114/24 91/115/24 
f 91/115/24 92/116/24 90/109/24 
f 92/109/24 91/111/24 93/112/24 
f 93/112/24 94/113/24 92/109/24 
f 94/110/24 93/107/24 95/108/24 
f 95/108/24 96/109/24 94/110/24 
f 96/106/24 95/103/24 97/104/24 
f 97/104/24 98/105/24 96/106/24 
f 98/102/24 97/99/24 99/100/24 
f 99/100/24 100/101/24 98/102/24 
f 100/98/24 99/95/24 101/96/24 
f 101/96/24 102/97/24 100/98/24 
f 103/93/24 102/94/24 101/91/24 
f 101/91/24 104/92/24 103/93/24 
f 98/128/25 64/129/25 62/130/25 
f 62/130/25 96/131/25 98/128/25 
f 91/132/26 57/133/26 59/134/26 
f 59/134/26 93/135/26 91/132/26 
f 100/136/27 66/137/27 64/129/27 
f 64/129/27 98/128/27 100/136/27 
f 74/138/28 40/139/28 39/140/28 
f 39/140/28 71/141/28 74/138/28 
f 93/135/29 59/134/29 61/142/29 
f 61/142/29 95/143/29 93/135/29 
f 102/144/30 68/145/30 66/137/30 
f 66/137/30 100/136/30 102/144/30 
f 76/146/31 42/147/31 40/139/31 
f 40/139/31 74/138/31 76/146/31 
f 95/148/32 61/149/32 63/109/32 
f 63/109/32 97/150/32 95/148/32 
f 103/151/33 69/152/33 68/145/33 
f 68/145/33 102/144/33 103/151/33 
f 78/153/34 44/154/34 42/147/34 
f 42/147/34 76/146/34 78/153/34 
f 97/155/35 63/156/35 65/109/35 
f 65/109/35 99/150/35 97/155/35 
f 72/157/36 38/158/36 37/159/36 
f 37/159/36 73/160/36 72/157/36 
f 80/161/37 46/162/37 44/154/37 
f 44/154/37 78/153/37 80/161/37 
f 99/163/38 65/164/38 67/109/38 
f 67/109/38 101/150/38 99/163/38 
f 73/160/39 37/159/39 41/165/39 
f 41/165/39 75/166/39 73/160/39 
f 82/167/40 48/168/40 46/169/40 
f 46/169/40 80/170/40 82/167/40 
f 101/171/41 67/119/41 70/109/41 
f 70/109/41 104/172/41 101/171/41 
f 75/166/42 41/165/42 43/173/42 
f 43/173/42 77/174/42 75/166/42 
f 84/175/43 50/176/43 48/168/43 
f 48/168/43 82/167/43 84/175/43 
f 71/177/44 39/178/44 38/179/44 
f 38/179/44 72/180/44 71/177/44 
f 77/174/45 43/173/45 45/181/45 
f 45/181/45 79/182/45 77/174/45 
f 86/183/46 52/184/46 50/176/46 
f 50/176/46 84/175/46 86/183/46 
f 79/185/47 45/186/47 47/187/47 
f 47/187/47 81/188/47 79/185/47 
f 88/189/48 54/190/48 52/184/48 
f 52/184/48 86/183/48 88/189/48 
f 81/188/49 47/187/49 49/191/49 
f 49/191/49 83/192/49 81/188/49 
f 104/193/44 70/194/44 69/195/44 
f 69/195/44 103/196/44 104/193/44 
f 90/197/50 56/198/50 54/190/50 
f 54/190/50 88/189/50 90/197/50 
f 83/192/51 49/191/51 51/199/51 
f 51/199/51 85/200/51 83/192/51 
f 92/201/52 58/202/52 56/198/52 
f 56/198/52 90/197/52 92/201/52 
f 85/200/53 51/199/53 53/203/53 
f 53/203/53 87/204/53 85/200/53 
f 94/205/54 60/206/54 58/202/54 
f 58/202/54 92/201/54 94/205/54 
f 87/204/55 53/203/55 55/207/55 
f 55/207/55 89/208/55 87/204/55 
f 96/209/56 62/210/56 60/206/56 
f 60/206/56 94/205/56 96/209/56 
f 89/208/57 55/207/57 57/133/57 
f 57/133/57 91/132/57 89/208/57 
# 132 faces

