# 3ds Max Wavefront OBJ Exporter v0.99 - (c)2007 guruware
# File Created: 05.12.2021 15:32:04

mtllib poste.mtl

#
# object Cylinder00
#

v  -0.8958 2.1039 1.5423
v  -1.3837 2.1039 2.1237
v  -1.1910 2.1039 1.7900
v  0.7017 2.1039 2.1237
v  0.7686 55.5897 2.5032
v  0.7686 2.1039 2.5032
v  -1.1910 58.2174 1.7900
v  -1.3837 2.1039 2.8827
v  -1.4506 55.5897 2.5032
v  -1.4506 2.1039 2.5032
v  -1.1910 2.1039 3.2164
v  -1.3508 56.0006 2.9398
v  -1.3812 55.8383 2.8871
v  0.5090 2.1039 1.7900
v  0.6687 56.0006 2.0666
v  0.6991 55.8383 2.1193
v  0.5090 58.2174 1.7900
v  0.2138 2.1039 1.5423
v  0.2138 58.2174 1.5423
v  -0.1483 2.1039 1.4105
v  -0.1483 58.2174 1.4105
v  -0.5337 2.1039 1.4105
v  -0.5337 58.2174 1.4105
v  -0.8958 58.2174 1.5423
v  -1.3508 56.0006 2.0666
v  -1.3812 55.8383 2.1193
v  -1.4239 55.6197 2.3516
v  -0.8958 58.2174 3.4642
v  -0.8958 2.1039 3.4642
v  -0.5337 58.2174 3.5960
v  -0.5337 2.1039 3.5960
v  -0.1483 58.2174 3.5960
v  -0.1483 2.1039 3.5960
v  0.2138 58.2174 3.4642
v  0.2138 2.1039 3.4642
v  0.5090 58.2174 3.2164
v  0.5090 2.1039 3.2164
v  0.6687 56.0006 2.9398
v  0.6991 55.8383 2.8871
v  0.7017 2.1039 2.8827
v  0.7419 55.6197 2.6548
v  -1.3837 58.2174 2.1237
v  -1.4506 58.2174 2.5032
v  0.7017 58.2174 2.1237
v  0.7686 56.5842 2.5032
v  0.7419 56.5542 2.3516
v  -1.4506 56.5842 2.5032
v  0.7017 58.2174 2.8827
v  0.7686 58.2174 2.5032
v  -1.3837 58.2174 2.8827
v  -1.4239 56.5542 2.6548
v  7.7869 56.4679 2.7882
v  0.7419 56.5542 2.6548
v  0.7184 56.4679 2.7882
v  7.7869 56.5542 2.6548
v  7.7869 55.6197 2.3516
v  7.7869 55.6197 2.6548
v  7.7869 55.5897 2.5032
v  7.7869 56.1733 2.9398
v  0.6991 56.3356 2.8871
v  0.6687 56.1733 2.9398
v  7.7869 56.0006 2.9398
v  7.7869 55.8383 2.8871
v  0.7184 55.7060 2.7882
v  7.7869 55.7060 2.7882
v  0.7419 55.6197 2.3516
v  7.7869 55.7060 2.2183
v  0.7184 55.7060 2.2183
v  7.7869 55.8383 2.1193
v  0.7017 55.8324 2.1237
v  7.7869 56.0006 2.0666
v  0.6687 56.1733 2.0666
v  7.7869 56.1733 2.0666
v  0.6991 56.3356 2.1193
v  7.7869 56.3356 2.1193
v  0.7184 56.4679 2.2183
v  7.7869 56.4679 2.2183
v  7.7869 56.5542 2.3516
v  7.7869 56.5842 2.5032
v  7.7869 56.3356 2.8871
v  0.7017 56.3415 2.8827
v  -7.5781 56.5542 2.3516
v  -1.4239 56.5542 2.3516
v  -7.5781 56.5542 2.6548
v  -7.5781 56.5842 2.5032
v  -1.4239 55.6197 2.6548
v  -4.5051 55.6197 2.6548
v  -1.4505 55.5899 2.5041
v  -1.4321 55.6197 2.3516
v  -4.5051 55.5897 2.5032
v  -7.5781 56.1733 2.0666
v  -1.3812 56.3356 2.1193
v  -1.3508 56.1733 2.0666
v  -7.5781 56.0006 2.0666
v  -7.5781 55.6197 2.3516
v  -7.5781 55.6197 2.6548
v  -7.5781 55.7060 2.7882
v  -7.5781 56.3356 2.1193
v  -1.4004 56.4679 2.2183
v  -1.3837 56.3415 2.1237
v  -7.5781 56.4679 2.2183
v  -7.5781 56.4679 2.7882
v  -7.5781 56.3356 2.8871
v  -1.4004 56.4679 2.7882
v  -7.5781 56.1733 2.9398
v  -1.3812 56.3356 2.8871
v  -7.5781 56.0006 2.9398
v  -1.3508 56.1733 2.9398
v  -7.5781 55.8383 2.8871
v  -1.4004 55.7060 2.7882
v  -1.3837 55.8324 2.8827
v  -7.5781 55.7060 2.2183
v  -7.5781 55.8383 2.1193
v  -1.4004 55.7060 2.2183
v  -7.5781 55.5897 2.5032
v  -1.3837 56.3415 2.8827
v  -1.1910 58.2174 3.2164
v  0.7017 56.3415 2.1237
v  -1.3837 55.8324 2.1237
v  0.7017 55.8324 2.8827
# 120 vertices

vn 0.0000 -1.0000 -0.0000
vn 0.9848 -0.0000 -0.1736
vn 0.9848 0.0000 -0.1736
vn -0.6428 0.0000 -0.7660
vn -0.9397 0.0000 0.3420
vn -0.9848 0.0000 0.1737
vn -0.9848 0.0000 0.1736
vn -0.8660 -0.0000 0.5000
vn 0.8660 -0.0000 -0.5000
vn 0.8660 0.0000 -0.5000
vn 0.6428 0.0000 -0.7660
vn 0.3420 0.0000 -0.9397
vn 0.0000 0.0000 -1.0000
vn -0.3420 0.0000 -0.9397
vn -0.8660 0.0000 -0.5000
vn -0.9848 0.0000 -0.1736
vn -0.6428 0.0000 0.7660
vn -0.3420 0.0000 0.9397
vn -0.1736 0.0000 0.9848
vn -0.0000 0.0000 1.0000
vn 0.1736 0.0000 0.9848
vn 0.3420 0.0000 0.9397
vn 0.5000 0.0000 0.8660
vn 0.6428 0.0000 0.7660
vn 0.8661 -0.0000 0.4999
vn 0.8660 0.0000 0.5000
vn 0.9397 -0.0000 0.3420
vn 0.9848 -0.0000 0.1736
vn 0.9848 0.0000 0.1736
vn 0.0000 1.0000 -0.0000
vn 1.0000 0.0000 0.0000
vn -0.9848 -0.0000 -0.1736
vn -0.9848 -0.0000 0.1736
vn 0.0000 0.7358 0.6773
vn 0.0000 0.8618 0.5072
vn 0.0000 0.8732 0.4873
vn 0.0000 0.9627 0.2706
vn 1.0000 0.0000 -0.0000
vn 0.0000 0.2226 0.9749
vn 0.0000 -0.1120 0.9937
vn 0.0000 0.0000 1.0000
vn 0.0000 -0.2226 0.9749
vn 0.0000 -0.4657 0.8849
vn -0.0000 -0.4657 0.8849
vn 0.0000 -0.7358 0.6773
vn 0.0000 -0.9627 0.2706
vn 0.0000 -0.9627 -0.2706
vn 0.0000 -0.8618 -0.5072
vn 0.0000 -0.7358 -0.6773
vn -0.0000 -0.4657 -0.8849
vn -0.0000 -0.4659 -0.8848
vn 0.0000 -0.2226 -0.9749
vn 0.0000 0.2226 -0.9749
vn 0.0000 0.4657 -0.8849
vn 0.0000 0.7358 -0.6773
vn 0.0000 0.9627 -0.2706
vn 0.0000 0.4657 0.8849
vn 0.0000 0.4658 0.8849
vn 0.0000 0.4656 0.8850
vn -0.0000 0.9627 -0.2706
vn -0.0000 0.2226 -0.9749
vn -0.0000 0.0000 -1.0000
vn -1.0000 0.0000 -0.0000
vn -0.0000 0.4657 -0.8849
vn -0.0000 0.4658 -0.8849
vn -0.0000 0.4656 -0.8850
vn -0.0000 0.4657 0.8849
vn -0.0000 0.2226 0.9749
vn 0.0000 -0.4659 0.8848
vn 0.0000 -0.4657 -0.8849
vn -0.0000 -0.2226 -0.9749
vn -0.8660 0.0000 0.5000
vn -0.8660 -0.0000 -0.5000
vn 0.8660 -0.0000 0.5000
vn 0.0000 -0.4660 0.8848
vn 0.0000 -0.4660 -0.8848
vn 0.0000 0.4656 -0.8850
vn 0.0000 0.4655 0.8851
vn 0.0000 0.4655 -0.8850
vn 0.0000 -0.7358 -0.6772
vn -0.0000 -0.4660 -0.8848
vn 0.0004 -0.9607 0.2774
# 82 vertex normals

vt 0.6600 0.0000 0.0000
vt 0.4050 0.0000 0.0000
vt 0.5346 0.0000 0.0000
vt 0.8056 0.0000 0.0000
vt 0.7500 0.9532 0.0000
vt 0.7500 0.0000 0.0000
vt 0.1389 1.0000 0.0000
vt 0.0833 0.0000 0.0000
vt 0.1389 0.0000 0.0000
vt 0.3056 0.0000 0.0000
vt 0.2500 0.9532 0.0000
vt 0.2500 0.0000 0.0000
vt 0.3611 0.0000 0.0000
vt 0.3151 0.9605 0.0000
vt 0.3063 0.9576 0.0000
vt 0.8611 -0.0000 0.0000
vt 0.8151 0.9605 0.0000
vt 0.8063 0.9576 0.0000
vt 0.8611 1.0000 0.0000
vt 0.9167 -0.0000 0.0000
vt 0.9167 1.0000 0.0000
vt 0.9722 -0.0000 0.0000
vt 0.9722 1.0000 0.0000
vt -0.0278 1.0000 0.0000
vt 0.0278 -0.0000 0.0000
vt 0.0278 1.0000 0.0000
vt 0.0833 1.0000 0.0000
vt 0.0833 -0.0000 0.0000
vt 0.1849 0.9605 0.0000
vt 0.1389 -0.0000 0.0000
vt 0.1937 0.9576 0.0000
vt 0.1944 -0.0000 0.0000
vt 0.2278 0.9537 0.0000
vt 0.4167 1.0000 0.0000
vt 0.3611 -0.0000 0.0000
vt 0.4167 -0.0000 0.0000
vt 0.4722 1.0000 0.0000
vt 0.4722 -0.0000 0.0000
vt 0.5278 1.0000 0.0000
vt 0.5278 -0.0000 0.0000
vt 0.5833 1.0000 0.0000
vt 0.5833 -0.0000 0.0000
vt 0.6389 1.0000 0.0000
vt 0.6389 -0.0000 0.0000
vt 0.6849 0.9605 0.0000
vt 0.6937 0.9576 0.0000
vt 0.6944 -0.0000 0.0000
vt 0.7278 0.9537 0.0000
vt 0.4775 1.0000 0.0000
vt 0.3056 1.0000 0.0000
vt 0.2500 1.0000 0.0000
vt 0.8056 1.0000 0.0000
vt 0.7500 0.9709 0.0000
vt 0.7722 0.9704 0.0000
vt 0.1944 1.0000 0.0000
vt 0.2500 0.9709 0.0000
vt 0.6944 1.0000 0.0000
vt 0.7500 1.0000 0.0000
vt 0.2722 0.9704 0.0000
vt 0.3611 1.0000 0.0000
vt 0.3056 0.5415 0.0000
vt 0.3611 0.5400 0.0000
vt 0.2500 0.5432 0.0000
vt 0.7313 1.0000 0.0000
vt 0.7265 1.0000 0.0000
vt 0.4167 0.5387 0.0000
vt 0.4722 0.5367 0.0000
vt 0.5278 0.5367 0.0000
vt 0.5833 0.5387 0.0000
vt 0.6389 0.5400 0.0000
vt 0.6944 0.5415 0.0000
vt 0.7500 0.5432 0.0000
vt 0.8056 0.5415 0.0000
vt 0.8611 0.5400 0.0000
vt 0.9142 0.5389 0.0000
vt 0.9167 0.5387 0.0000
vt 0.9722 0.5367 0.0000
vt 0.0278 0.5367 0.0000
vt 0.0833 0.5387 0.0000
vt 0.1389 0.5400 0.0000
vt 0.1944 0.5415 0.0000
vt 0.4142 0.5389 0.0000
vt 0.2500 0.3988 0.0000
vt 0.1944 0.4005 0.0000
vt 0.2500 -0.0000 0.0000
vt 0.6944 0.4005 0.0000
vt 0.6944 0.2000 0.0000
vt 0.7497 0.3988 0.0000
vt 0.8056 0.4000 0.0000
vt 0.7500 0.3988 0.0000
vt 0.7500 0.2000 0.0000
vt 0.0833 0.4033 0.0000
vt 0.0278 0.4053 0.0000
vt -0.0278 0.0000 0.0000
vt -0.0278 0.4053 0.0000
vt 0.7754 0.0000 0.0000
vt 0.6944 0.0000 0.0000
vt 0.6154 0.0000 0.0000
vt 0.1389 0.4021 0.0000
vt 0.0858 0.4031 0.0000
vt 0.3056 0.4005 0.0000
vt 0.3611 0.4021 0.0000
vt 0.4167 0.4033 0.0000
vt 0.4722 0.4053 0.0000
vt 0.5278 0.0000 0.0000
vt 0.5833 0.4033 0.0000
vt 0.5278 0.4053 0.0000
vt 0.5833 0.0000 0.0000
vt 0.6389 0.4021 0.0000
vt 0.5858 0.4031 0.0000
vt 0.6389 0.0000 0.0000
vt 0.8056 -0.0000 0.0000
vt 0.8611 0.4021 0.0000
vt 0.9167 0.4033 0.0000
vt 0.1269 0.0000 0.0000
vt 0.2339 0.0000 0.0000
vt 0.1599 0.0000 0.0000
vt 0.3400 0.0000 0.0000
vt 0.4654 0.0000 0.0000
vt 0.5950 0.0000 0.0000
vt 0.7131 0.0000 0.0000
vt 0.1944 0.0000 0.0000
vt 0.2869 0.0000 0.0000
vt 0.8611 0.0000 0.0000
vt 0.8731 0.0000 0.0000
vt 0.8401 0.0000 0.0000
vt 0.7661 0.0000 0.0000
vt 0.7917 0.9552 0.0000
vt 0.8056 0.9575 0.0000
vt 0.7722 0.9537 0.0000
vt 0.2917 0.9552 0.0000
vt 0.3056 0.9575 0.0000
vt 0.2722 0.9537 0.0000
vt 0.2501 0.9532 0.0000
vt 0.3056 0.9666 0.0000
vt 0.3063 0.9665 0.0000
vt 0.3151 0.9636 0.0000
vt 0.8056 0.9666 0.0000
vt 0.8063 0.9665 0.0000
vt 0.8151 0.9636 0.0000
vt -0.0278 -0.0000 0.0000
vt 0.1944 0.9666 0.0000
vt 0.1944 0.9575 0.0000
vt 0.1937 0.9665 0.0000
vt 0.1849 0.9636 0.0000
vt 0.2083 0.9552 0.0000
vt 0.6944 0.9666 0.0000
vt 0.6944 0.9575 0.0000
vt 0.6937 0.9665 0.0000
vt 0.6849 0.9636 0.0000
vt 0.7083 0.9552 0.0000
vt 0.7500 -0.0000 0.0000
vt 0.4269 1.0000 0.0000
vt 0.2725 1.0000 0.0000
vt 0.3400 1.0000 0.0000
vt 0.2324 1.0000 0.0000
vt 0.5225 1.0000 0.0000
vt 0.6154 1.0000 0.0000
vt 0.2246 1.0000 0.0000
vt 0.7754 1.0000 0.0000
vt 0.7676 1.0000 0.0000
vt 0.7275 1.0000 0.0000
vt 0.6600 1.0000 0.0000
vt 0.5731 1.0000 0.0000
vt 0.3846 1.0000 0.0000
vt 0.7917 0.9688 0.0000
vt 0.2083 0.9688 0.0000
vt 0.2278 0.9704 0.0000
vt 0.7083 0.9688 0.0000
vt 0.7278 0.9704 0.0000
vt 0.2917 0.9688 0.0000
vt 0.2687 1.0000 0.0000
vt 0.2735 1.0000 0.0000
vt 0.2918 1.0000 0.0000
vt 0.4334 1.0000 0.0000
vt 0.4076 1.0000 0.0000
vt 0.5138 1.0000 0.0000
vt 0.4862 1.0000 0.0000
vt 0.5924 1.0000 0.0000
vt 0.5666 1.0000 0.0000
vt 0.7082 1.0000 0.0000
vt 0.5858 0.5389 0.0000
vt -0.0278 0.5367 0.0000
vt 0.0858 0.5389 0.0000
vt 0.8056 0.4005 0.0000
vt 0.0278 0.0000 0.0000
vt 0.2246 0.0000 0.0000
vt 0.3846 0.0000 0.0000
vt 0.2324 0.0000 0.0000
vt 0.4775 0.0000 0.0000
vt 0.2725 0.0000 0.0000
vt 0.5731 0.0000 0.0000
vt 0.4269 0.0000 0.0000
vt 0.7275 0.0000 0.0000
vt 0.5225 0.0000 0.0000
vt 0.7676 0.0000 0.0000
vt 0.4142 0.4031 0.0000
vt 0.9142 0.4031 0.0000
vt 0.9722 0.4053 0.0000
# 199 texture coords

o Cylinder00
g Cylinder00
usemtl 01___Default
s 1
f 1/1/1 2/2/1 3/3/1 
s 8
f 4/4/2 5/5/2 6/6/3 
f 7/7/4 1/8/4 3/9/4 
f 8/10/5 9/11/6 10/12/7 
f 11/13/8 12/14/8 13/15/8 
f 14/16/9 15/17/10 16/18/9 
f 17/19/11 18/20/11 19/21/11 
f 19/21/12 20/22/12 21/23/12 
f 21/24/13 22/25/13 23/26/13 
f 24/27/14 22/25/14 1/28/14 
f 25/29/15 3/30/15 26/31/15 
f 2/32/16 9/11/16 27/33/16 
f 28/34/17 11/35/17 29/36/17 
f 30/37/18 29/36/18 31/38/19 
f 32/39/20 31/38/19 33/40/21 
f 34/41/22 33/40/21 35/42/23 
f 36/43/24 35/42/23 37/44/24 
f 38/45/25 37/44/26 39/46/26 
f 40/47/27 5/5/28 41/48/29 
s 1
f 24/49/30 42/50/30 43/51/30 
s 8
f 44/52/3 45/53/31 46/54/3 
f 42/55/16 47/56/32 43/51/16 
f 48/57/28 45/53/31 49/58/31 
f 50/50/33 47/56/33 51/59/33 
s 2
f 52/60/34 53/61/35 54/62/34 
f 55/50/36 45/63/37 53/61/35 
s 1
f 56/57/38 57/64/38 58/65/38 
s 2
f 59/37/39 60/66/39 61/67/39 
f 62/39/40 61/67/41 38/68/41 
f 62/39/40 39/69/42 63/41/42 
f 63/41/43 64/70/44 65/43/43 
f 65/43/45 41/71/45 57/57/45 
f 57/57/46 5/72/46 58/58/46 
f 56/52/47 5/72/47 66/73/48 
f 67/19/49 66/73/48 68/74/49 
f 69/21/50 68/74/50 70/75/51 
f 71/23/52 16/76/52 15/77/52 
f 71/24/13 72/78/13 73/26/13 
f 73/26/53 74/79/53 75/27/53 
f 75/27/54 76/80/54 77/7/54 
f 77/7/55 46/81/55 78/55/55 
f 78/55/56 45/63/56 79/51/56 
f 80/34/57 54/62/58 81/82/59 
f 82/32/60 47/83/56 83/84/56 
f 84/10/37 47/83/37 85/85/37 
f 86/86/46 87/87/46 88/88/46 
f 89/89/47 9/90/47 90/91/47 
f 91/25/61 92/92/61 93/93/61 
f 94/94/62 93/93/13 25/95/13 
f 90/91/47 95/4/47 89/89/47 
s 1
f 95/96/63 96/97/63 97/98/63 
s 2
f 98/8/64 99/99/65 100/100/66 
f 101/9/55 83/84/55 99/99/55 
f 102/13/34 51/101/34 84/10/34 
f 103/36/67 104/102/67 102/35/57 
f 105/38/68 106/103/68 103/36/39 
f 107/40/20 108/104/20 105/38/20 
f 107/105/42 13/106/42 12/107/42 
f 109/108/43 110/109/43 111/110/69 
f 87/87/45 97/111/45 96/97/45 
f 112/16/49 89/89/49 95/112/49 
f 113/20/70 114/113/70 112/16/70 
f 94/22/71 26/114/71 113/20/71 
f 87/87/46 115/6/1 90/91/46 
s 1
f 29/115/1 33/116/1 31/117/1 
f 11/9/1 33/116/1 29/115/1 
f 11/9/1 35/118/1 33/116/1 
f 11/9/1 37/119/1 35/118/1 
f 11/9/1 40/120/1 37/119/1 
f 11/9/1 6/121/1 40/120/1 
f 8/122/1 6/121/1 11/9/1 
f 10/123/1 6/121/1 8/122/1 
f 10/123/1 4/4/1 6/121/1 
f 10/123/1 14/124/1 4/4/1 
f 10/123/1 18/125/1 14/124/1 
f 10/123/1 20/126/1 18/125/1 
f 10/123/1 22/127/1 20/126/1 
f 10/123/1 1/1/1 22/127/1 
f 2/2/1 1/1/1 10/123/1 
s 8
f 68/128/3 4/4/2 70/129/3 
f 66/130/3 4/4/2 68/128/3 
f 5/5/2 4/4/2 66/130/2 
f 1/8/4 7/7/4 24/27/4 
f 110/131/7 8/10/5 111/132/7 
f 86/133/33 8/10/5 110/131/33 
f 88/134/7 8/10/5 86/133/7 
f 9/11/6 8/10/5 88/134/6 
f 116/135/72 117/60/72 50/50/72 
f 11/13/8 111/132/72 8/10/5 
f 106/136/72 117/60/72 116/135/72 
f 11/13/8 13/15/8 111/132/8 
f 108/137/72 117/60/72 106/136/72 
f 108/137/72 11/13/8 117/60/72 
f 12/14/8 11/13/8 108/137/72 
f 118/138/9 17/19/10 44/52/10 
f 14/16/9 70/129/10 4/112/10 
f 74/139/9 17/19/9 118/138/9 
f 14/16/9 16/18/9 70/129/9 
f 72/140/10 17/19/10 74/139/10 
f 72/140/10 14/16/9 17/19/10 
f 15/17/10 14/16/9 72/140/10 
f 18/20/11 17/19/11 14/16/11 
f 20/22/12 19/21/12 18/20/12 
f 22/25/13 21/24/13 20/141/13 
f 22/25/14 24/27/14 23/26/14 
f 7/7/15 100/142/15 42/55/15 
f 119/143/15 3/30/15 2/32/15 
f 7/7/73 92/144/73 100/142/73 
f 26/31/15 3/30/15 119/143/15 
f 7/7/15 93/145/15 92/144/15 
f 3/30/15 93/145/15 7/7/15 
f 3/30/38 25/29/15 93/145/15 
f 2/32/16 114/146/16 119/143/16 
f 2/32/16 27/33/16 114/146/16 
f 9/11/16 2/32/16 10/85/16 
f 11/35/17 28/34/17 117/60/17 
f 29/36/18 30/37/18 28/34/18 
f 31/38/19 32/39/20 30/37/20 
f 33/40/21 34/41/22 32/39/22 
f 35/42/23 36/43/24 34/41/24 
f 36/43/26 81/147/26 48/57/26 
f 120/148/74 37/44/26 40/47/27 
f 36/43/26 60/149/26 81/147/26 
f 39/46/26 37/44/74 120/148/74 
f 36/43/26 61/150/26 60/149/26 
f 37/44/26 61/150/26 36/43/26 
f 37/44/38 38/45/25 61/150/25 
f 40/47/27 64/151/29 120/148/29 
f 40/47/27 41/48/29 64/151/29 
f 5/5/29 40/47/27 6/152/29 
s 1
f 32/153/30 28/154/30 30/155/30 
f 32/153/30 117/156/30 28/154/30 
f 34/157/30 117/156/30 32/153/30 
f 36/158/30 117/156/30 34/157/30 
f 48/57/30 117/156/30 36/158/30 
f 49/58/30 117/156/30 48/57/30 
f 49/58/30 50/159/30 117/156/30 
f 49/58/30 43/51/30 50/159/30 
f 44/160/30 43/51/30 49/58/30 
f 17/161/30 43/51/30 44/160/30 
f 19/162/30 43/51/30 17/161/30 
f 21/163/30 43/51/30 19/162/30 
f 23/164/30 43/51/30 21/163/30 
f 24/49/30 43/51/30 23/164/30 
f 42/50/30 24/49/30 7/165/30 
s 8
f 44/52/3 76/166/3 118/138/3 
f 44/52/3 46/54/3 76/166/2 
f 45/53/31 44/52/3 49/58/31 
f 99/167/16 42/55/16 100/142/16 
f 83/168/32 42/55/32 99/167/32 
f 47/56/32 42/55/32 83/168/32 
f 54/169/29 48/57/28 81/147/29 
f 53/170/28 48/57/28 54/169/28 
f 45/53/31 48/57/28 53/170/28 
f 50/50/33 104/171/7 116/135/7 
f 50/50/33 51/59/33 104/171/7 
f 47/56/7 50/50/33 43/51/7 
s 2
f 53/61/35 52/60/34 55/50/36 
f 45/63/37 55/50/36 79/51/37 
s 1
f 55/50/38 78/172/38 79/173/38 
f 55/50/38 77/174/38 78/172/38 
f 52/60/38 77/174/38 55/50/38 
f 52/60/38 75/155/38 77/174/38 
f 80/175/38 75/155/38 52/60/38 
f 80/175/38 73/176/38 75/155/38 
f 59/177/38 73/176/38 80/175/38 
f 59/177/38 71/178/38 73/176/38 
f 62/179/38 71/178/38 59/177/38 
f 63/163/38 71/178/38 62/179/38 
f 63/163/38 69/180/38 71/178/38 
f 65/181/38 69/180/38 63/163/38 
f 65/181/38 67/43/38 69/180/38 
f 65/181/38 56/57/38 67/43/38 
f 57/64/38 56/57/38 65/181/38 
s 2
f 60/66/39 59/37/39 80/34/39 
f 61/67/41 62/39/40 59/37/41 
f 39/69/42 62/39/40 38/68/42 
f 120/182/75 63/41/75 39/69/75 
f 64/70/44 63/41/44 120/182/44 
f 41/71/45 65/43/45 64/70/45 
f 5/72/46 57/57/46 41/71/46 
f 5/72/47 56/52/47 58/58/47 
f 66/73/48 67/19/49 56/52/49 
f 69/21/50 70/75/51 16/76/76 
f 68/74/70 69/21/50 67/19/70 
f 16/76/52 71/23/52 69/21/52 
f 72/78/13 71/24/13 15/183/13 
f 74/79/53 73/26/53 72/78/53 
f 118/184/77 75/27/77 74/79/77 
f 76/80/54 75/27/54 118/184/54 
f 46/81/55 77/7/55 76/80/55 
f 45/63/56 78/55/56 46/81/56 
f 80/34/57 81/82/59 60/66/78 
f 54/62/57 80/34/57 52/60/57 
f 47/83/60 82/32/60 85/85/60 
f 47/83/37 84/10/37 51/101/37 
f 9/90/47 89/89/47 27/185/47 
f 92/92/61 91/25/61 98/28/53 
f 93/93/62 94/94/62 91/186/62 
f 95/4/47 90/91/47 115/6/1 
s 1
f 82/10/63 84/187/63 85/12/63 
f 101/188/63 84/187/63 82/10/63 
f 101/188/63 102/189/63 84/187/63 
f 98/190/63 102/189/63 101/188/63 
f 98/190/63 103/191/63 102/189/63 
f 91/192/63 103/191/63 98/190/63 
f 91/192/63 105/118/63 103/191/63 
f 94/1/63 105/118/63 91/192/63 
f 94/1/63 107/193/63 105/118/63 
f 113/194/63 107/193/63 94/1/63 
f 113/194/63 109/195/63 107/193/63 
f 112/196/63 109/195/63 113/194/63 
f 112/196/63 97/98/63 109/195/63 
f 95/96/63 97/98/63 112/196/63 
f 96/97/63 95/96/63 115/6/63 
s 2
f 98/8/64 100/100/66 92/92/79 
f 99/99/65 98/8/64 101/9/54 
f 83/84/55 101/9/55 82/122/55 
f 51/101/34 102/13/34 104/102/34 
f 116/197/59 103/36/67 106/103/59 
f 104/102/67 103/36/67 116/197/67 
f 106/103/68 105/38/68 108/104/68 
f 108/104/20 107/40/20 12/107/41 
f 13/106/42 107/105/42 109/108/42 
f 109/108/43 111/110/69 13/106/75 
f 110/109/43 109/108/43 97/111/43 
f 97/111/45 86/86/45 110/109/45 
f 97/111/45 87/87/45 86/86/45 
f 27/185/49 112/16/49 114/113/49 
f 89/89/80 112/16/49 27/185/80 
f 119/198/81 113/20/70 26/114/81 
f 114/113/70 113/20/70 119/198/70 
f 26/114/52 94/22/52 25/199/52 
f 87/87/82 9/90/82 88/88/82 
f 87/87/46 90/91/46 9/90/46 
f 115/6/1 87/87/46 96/97/46 
# 236 faces

